<svg xmlns="http://www.w3.org/2000/svg" width="356" height="335">
    <path fill="#CCC" fill-rule="evenodd"
        d="M209.5 299.008c24.025-24.722 32.382-32.486 34.072-33.204 1.69-.717 4.562-2.563 6.383-4.102 1.821-1.538 3.95-2.663 4.731-2.5.78.164 1.443.682 1.472 1.152.029.469-6.65 7.669-14.843 16-8.193 8.33-16.37 17.621-18.17 20.646-1.8 3.025-4.37 7.031-5.712 8.902-1.341 1.872-3.37 6.527-4.507 10.345-1.137 3.819-1.8 7.637-1.475 8.486.469 1.222 1.677 1.428 5.82.99 2.876-.304 6.448-1.023 7.938-1.598 1.58-.609 3.56-2.712 4.75-5.045 1.47-2.883 2.041-5.928 2.041-10.9 0-5.785.57-8.13 3.528-14.535 1.941-4.2 5.455-10.001 7.81-12.891 2.355-2.89 7.107-7.954 10.56-11.254 3.452-3.3 8.375-7.483 10.94-9.295a453.695 453.695 0 0 1 9.662-6.599c2.75-1.817 7.25-4.547 10-6.067a536.58 536.58 0 0 0 9.09-5.152c2.25-1.314 4.655-3.627 5.346-5.138.69-1.512 1.502-5.126 1.803-8.032.478-4.611.243-5.611-1.846-7.866-1.316-1.42-3.371-3.037-4.566-3.592-1.196-.556-3.793-.707-5.772-.335-1.979.37-5.186 2.07-7.127 3.774-1.942 1.704-4.21 4.412-5.04 6.017-.829 1.605-1.369 4.1-1.198 5.544.239 2.024 1.065 2.82 3.607 3.474 1.813.467 3.558 1.528 3.877 2.359.324.845-.435 2.589-1.722 3.959-1.265 1.347-3.34 2.449-4.612 2.449-1.59 0-3.14-1.252-4.964-4.008-2.293-3.465-2.571-4.694-2.054-9.06.329-2.78 1.58-7.017 2.778-9.418 1.2-2.4 4.353-6.506 7.01-9.122 4.83-4.757 4.83-4.757 13.386-4.64 6.671.091 9.27.558 11.797 2.12 1.783 1.102 4.345 3.178 5.694 4.614 1.989 2.117 2.523 3.88 2.82 9.313.333 6.068.1 7.075-2.47 10.664-1.56 2.179-5.342 6.454-8.403 9.5-3.863 3.842-8.605 7.067-15.494 10.537-5.46 2.75-12.405 6.784-15.434 8.963-3.028 2.18-7.38 5.69-9.671 7.8-2.291 2.11-6.044 6.997-8.34 10.862-3.146 5.296-4.017 7.65-3.537 9.564.616 2.454.843 2.52 6.84 2.004 3.41-.294 11.032-1.232 16.936-2.085 5.926-.856 12.514-2.46 14.71-3.58 2.187-1.115 5.457-2.026 7.266-2.023 1.81.003 5.54-.734 8.29-1.637 2.75-.903 5.9-1.98 7-2.394 1.1-.414 5.375-2.436 9.5-4.493 4.125-2.057 9.525-4.974 12-6.484 2.475-1.51 6.385-4.506 8.688-6.66 2.304-2.154 5.336-5.923 6.738-8.377 1.67-2.92 2.554-5.992 2.562-8.894.007-2.46-.886-6.245-2.005-8.5-1.11-2.236-3.077-5.261-4.372-6.722-1.295-1.461-4.212-3.83-6.482-5.263-2.271-1.433-4.129-3.275-4.129-4.094 0-.818.399-1.487.886-1.487s1.956.563 3.264 1.25c1.308.688 4.338 2.825 6.732 4.75 2.395 1.925 4.638 4.196 4.986 5.046.348.85 1.582 2.875 2.743 4.5 1.161 1.625 2.63 4.552 3.262 6.505.797 2.459.86 5.073.204 8.5-.52 2.722-1.538 6.33-2.261 8.016-.724 1.687-3.341 5.365-5.816 8.172-2.475 2.808-6.84 6.962-9.702 9.23-2.861 2.269-7.811 5.465-11 7.103-3.189 1.639-8.498 3.9-11.798 5.028-3.3 1.126-7.488 2.915-9.307 3.974-1.82 1.06-4.647 1.926-6.285 1.926s-3.98.657-5.206 1.46c-1.225.803-4.697 1.94-7.715 2.529-3.018.588-7.962 1.722-10.987 2.52-3.025.798-8.65 1.932-12.5 2.521-3.85.59-8.8 1.302-11 1.583-2.2.281-4.97.706-6.157.945-1.799.361-2.24 1.308-2.648 5.688-.27 2.89-.831 6.604-1.246 8.254-.415 1.65-2.03 4.558-3.59 6.463-2.161 2.64-4.32 3.879-9.097 5.215-3.444.963-9.187 1.75-12.762 1.748-3.575-.002-7.947-.633-9.715-1.402-1.87-.813-3.453-2.367-3.783-3.711-.312-1.272-.583-3.663-.602-5.313-.018-1.65.279-5.362.66-8.25.694-5.25.694-5.25-35.567-5.25-21.932 0-37.69-.408-39.877-1.032-1.989-.568-8.116-1.468-13.616-2s-12.475-1.377-15.5-1.877c-3.025-.5-9.325-1.577-14-2.394-4.675-.817-10.975-2.257-14-3.2-3.025-.943-7.975-1.938-11-2.21-3.025-.273-5.725-.818-6-1.212-.275-.394-3.568-1.932-7.318-3.418-3.75-1.487-10.45-4.605-14.89-6.93-4.44-2.325-9.208-4.85-10.596-5.61-1.388-.76-5.652-4.586-9.476-8.5-3.823-3.914-7.8-9.067-8.836-11.45C.848 258.784 0 254.832 0 252.385s.697-6.122 1.549-8.167 3.214-5.432 5.25-7.526c2.035-2.094 5.527-4.619 7.76-5.61 2.232-.99 5.832-2.943 8-4.34 2.167-1.398 7.991-4.216 12.941-6.263 4.95-2.046 11.925-4.742 15.5-5.991 3.758-1.314 10.296-2.543 15.5-2.915 4.95-.354 10.35-.257 12 .214 1.947.556 3 1.508 3 2.711 0 1.365-1.452 2.325-5.5 3.637-3.025.98-7.824 2.446-10.663 3.258-2.84.812-7.34 2.393-10 3.514-2.66 1.12-6.187 2.592-7.837 3.27-1.65.679-3.9 1.479-5 1.778-1.1.3-4.7 2.073-8 3.94-3.3 1.868-7.642 4.952-9.648 6.854-2.007 1.902-4.433 4.915-5.392 6.695-1.227 2.278-1.546 4.284-1.078 6.778.365 1.948 1.998 5.383 3.628 7.633 1.63 2.25 4.657 5.014 6.727 6.144 2.07 1.129 5.338 3 7.263 4.157 1.925 1.158 5.75 2.892 8.5 3.853 2.75.962 7.7 2.996 11 4.52 3.3 1.525 8.25 3.379 11 4.12 2.75.742 7.757 1.799 11.127 2.349 3.37.55 7.742 1.676 9.718 2.501 2.084.872 6.667 1.501 10.923 1.501 4.033 0 7.83.497 8.437 1.105.608.608 4.186 1.467 7.95 1.909 3.765.441 9.995 1.29 13.845 1.888 3.85.598 11.629 1.539 17.286 2.092 5.657.553 22.307 1.008 37 1.01l26.714.004ZM167 280.401c-10.742.305-17.495.024-22-.915-3.575-.745-10.775-1.86-16-2.476-5.225-.617-10.85-1.717-12.5-2.445-1.65-.728-5.025-2.005-7.5-2.838-2.475-.833-7.425-2.86-11-4.506-3.575-1.645-8.144-4.73-10.153-6.856-2.01-2.126-5.047-6.09-6.75-8.81-2.217-3.54-3.097-6.17-3.097-9.25 0-3.491.343-4.305 1.814-4.305.998 0 3.347 2.046 5.22 4.546 1.874 2.501 5.694 6.273 8.488 8.383 2.795 2.11 7.533 5.05 10.53 6.531 2.996 1.483 6.665 3.559 8.153 4.614 1.487 1.056 4.637 2.552 7 3.326 2.362.773 7.22 2.105 10.795 2.96 3.575.853 9.425 2.01 13 2.569 3.575.559 11.225 1.53 17 2.16 5.775.628 19.05.978 29.5.777 16.385-.316 19-.16 19 1.134 0 1.077-1.55 1.673-5.5 2.114-3.025.338-8.875 1.117-13 1.73-4.125.615-14.475 1.315-23 1.557Zm16.038-26.576c-9.096-.096-18.563-.338-21.038-.538-2.475-.2-6.525-.981-9-1.737-2.475-.756-6.3-1.616-8.5-1.911-2.2-.295-5.8-1.135-8-1.867s-6.475-2.605-9.5-4.162c-3.025-1.557-6.547-3.793-7.826-4.97-1.28-1.177-3.08-2.435-4-2.795-.92-.36-3.573-2.613-5.895-5.008-2.321-2.394-5.482-6.374-7.024-8.845-1.542-2.47-4.758-8.542-7.146-13.492-2.388-4.95-5.24-11.7-6.34-15-1.1-3.3-3.1-10.275-4.445-15.5-1.346-5.225-3.098-12.2-3.894-15.5-.796-3.3-1.91-11.4-2.477-18-.566-6.6-.822-17.274-.569-23.719s.746-12.183 1.097-12.75c.35-.567 1.2-1.031 1.887-1.031s2.771 2.813 4.631 6.25c1.86 3.438 3.675 8.275 4.034 10.75.359 2.475 2.101 9.9 3.872 16.5s3.87 15.825 4.664 20.5c.794 4.675 3.09 13.675 5.102 20 2.011 6.325 4.761 13.262 6.11 15.416 1.35 2.154 2.825 5.21 3.279 6.792.453 1.582 2.925 5.82 5.492 9.416 2.954 4.14 6.72 7.887 10.263 10.208 3.078 2.018 6.742 4.321 8.14 5.12 1.4.798 3.808 2.293 5.352 3.322 1.543 1.028 4.243 2.324 6 2.88 1.756.556 4.093 1.43 5.193 1.942 1.1.512 9.187 1.825 17.972 2.918 8.784 1.092 18.684 1.975 22 1.962 3.315-.012 9.373-.912 13.46-2 4.088-1.087 9.545-1.976 12.126-1.976 2.818 0 6.927-.988 10.285-2.473 3.075-1.36 7.313-4.028 9.417-5.93 2.105-1.9 4.482-4.726 5.283-6.277.802-1.55 2.817-4.632 4.478-6.847 1.662-2.215 4.766-8.065 6.898-13 2.131-4.935 5.2-11.898 6.82-15.473 1.62-3.575 3.537-8.525 4.26-11 .723-2.475 1.77-6.75 2.325-9.5.556-2.75 1.685-7.475 2.508-10.5.824-3.025 2.308-9.1 3.299-13.5.99-4.4 3.008-11.503 4.482-15.786 1.475-4.282 3.065-7.765 3.534-7.742.47.024.803 3.078.743 6.786-.06 3.708-.64 10.567-1.286 15.242-.646 4.675-1.386 10.525-1.645 13-.258 2.475-.99 7.54-1.626 11.255-.636 3.716-.907 7.004-.603 7.308.304.304 3.864-.53 7.911-1.852 4.047-1.323 10.888-4.126 15.2-6.23 6.03-2.941 9.146-5.283 13.491-10.14 3.108-3.475 6.182-7.785 6.833-9.58.65-1.793 1.217-5.188 1.259-7.543.042-2.355-.544-5.767-1.303-7.582-.758-1.815-2.619-4.276-4.135-5.468-1.538-1.21-4.186-2.168-5.994-2.168-1.78 0-5.432.923-8.115 2.052-2.682 1.128-6.123 2.733-7.645 3.567-1.522.833-3.768 1.373-4.99 1.198-1.222-.174-2.367-1.078-2.544-2.008-.177-.93.452-2.871 1.398-4.315.946-1.443 4.329-3.942 7.518-5.552 3.19-1.61 7.34-4.28 9.225-5.935 1.884-1.654 4.455-3.007 5.714-3.007 1.26 0 3.01.651 3.889 1.447.88.796 2.499 1.809 3.599 2.25 1.1.442 4.135 2.292 6.744 4.111 3.378 2.355 5.606 5.013 7.73 9.222 2.291 4.538 2.984 7.256 2.979 11.691-.004 3.422-.668 7.003-1.63 8.779-.892 1.65-1.902 4.134-2.243 5.52-.342 1.385-1.971 4.225-3.621 6.312-1.65 2.086-4.8 5.012-7 6.503-2.2 1.49-6.7 3.892-10 5.338-3.3 1.446-10.05 3.861-15 5.367-4.95 1.506-10.575 3.534-12.5 4.507-1.925.972-5.252 3.291-7.393 5.153-2.48 2.158-4.054 4.486-4.338 6.42-.357 2.43.07 3.372 2.143 4.73 1.423.933 2.588 2.533 2.588 3.556 0 1.024-.855 2.084-1.9 2.358-1.046.273-2.958.315-4.25.093-1.901-.327-2.702.317-4.19 3.37-1.013 2.075-2.428 5.599-3.145 7.83-.716 2.23-3.58 7.63-6.361 12-2.782 4.369-7.438 10.274-10.346 13.122-2.908 2.849-6.192 5.37-7.298 5.604-1.105.233-5.28 2.087-9.277 4.12-6.115 3.11-9.121 3.925-18.962 5.146-6.757.838-18.678 1.377-28.233 1.276Zm-11.257-22.12c-1.255.113-3.181-.177-4.281-.644-1.1-.467-4.025-1.377-6.5-2.023-2.475-.646-8.25-3.056-12.834-5.356-4.583-2.3-9.983-5.773-12-7.718-2.016-1.945-4.974-5.32-6.572-7.5-1.598-2.18-3.712-4.639-4.699-5.464-.986-.825-3.204-4.65-4.928-8.5-1.724-3.85-3.717-8.8-4.427-11-.71-2.2-1.833-6.053-2.493-8.562-.661-2.51-1.054-6.106-.874-7.992.22-2.311.9-3.538 2.081-3.762 1.132-.214 2.373.793 3.5 2.843.96 1.746 3.274 5.717 5.142 8.824 1.867 3.107 3.7 7.449 4.071 9.649.372 2.2 1.646 6.025 2.831 8.5 1.186 2.475 2.961 5.85 3.946 7.5.985 1.65 2.642 4.42 3.683 6.156 1.041 1.735 3.565 4.095 5.608 5.244 2.044 1.148 5.037 3.44 6.652 5.091 1.615 1.652 5.609 4.4 8.875 6.108 3.266 1.708 8.099 3.893 10.74 4.857 2.64.963 4.792 2.154 4.78 2.648-.01.493-1.046.988-2.3 1.1ZM187.5 125.437c-19.25.207-37.475.022-40.5-.412-3.025-.434-8.875-1.098-13-1.475s-9.975-1.075-13-1.552c-3.025-.476-8.65-1.737-12.5-2.802-3.85-1.064-9.508-3.059-12.572-4.432-4.008-1.796-6.184-3.533-7.75-6.188-1.349-2.284-2.178-5.367-2.178-8.093 0-3.487.556-4.917 2.673-6.88 1.47-1.364 5.408-3.825 8.75-5.469 3.342-1.644 7.652-3.633 9.577-4.42 1.925-.788 4.759-1.946 6.297-2.573 1.538-.628 4.33-1.141 6.203-1.141 1.873 0 4.44-.447 5.703-.993s7.247-1.333 13.297-1.75c6.05-.416 28.1-.734 49-.707 21.668.029 41.438.521 46 1.145 4.4.602 10.925 1.834 14.5 2.739 5.776 1.461 7.252 2.389 13.25 8.328 4.015 3.976 6.75 7.525 6.75 8.758 0 1.14-1.688 3.685-3.75 5.654-2.511 2.398-5.071 3.785-7.75 4.199-2.2.34-6.25 1.098-9 1.684-2.75.587-9.725 1.537-15.5 2.113-6.133.611-18.598.783-29.97.412-10.709-.348-21.284-1.126-23.5-1.728a427.69 427.69 0 0 1-7.315-2.063c-1.807-.533-4.008-2.071-4.89-3.417-1.514-2.311-1.473-2.587.72-4.922 1.279-1.361 4.074-2.945 6.212-3.521 2.138-.576 5.272-.908 6.964-.739 1.693.17 3.573 1.122 4.178 2.117.879 1.444.71 2.099-.84 3.25-1.068.792-3.463 1.441-5.323 1.441-2.682 0-3.314.363-3.05 1.75.261 1.372 1.843 1.921 7.323 2.541 3.845.436 15.541 1.045 25.991 1.355 12.805.38 22.216.146 28.865-.718 6.726-.874 10.862-1.952 13-3.39 1.724-1.158 3.266-3.008 3.427-4.109.16-1.101-.74-2.965-2-4.142-1.26-1.177-4.317-2.884-6.792-3.794-2.475-.91-7.425-2.479-11-3.488s-9.77-2.322-13.769-2.92C216.234 84.489 205.79 84 197.022 84c-8.767 0-19.221.429-23.231.952-4.01.524-12.241 1.455-18.291 2.07-6.05.614-14.375 1.8-18.5 2.636-4.125.836-9.975 1.74-13 2.007-3.025.268-8.776 1.89-12.78 3.605-5.671 2.429-7.418 3.67-7.908 5.623-.454 1.81-.131 2.796 1.167 3.556.987.578 4.014 2.542 6.725 4.364 3.186 2.14 7.472 3.842 12.113 4.81 3.95.822 10.558 1.947 14.683 2.5 4.125.551 26.4 1.24 49.5 1.529 27.521.345 46.31.135 54.5-.607 6.875-.624 15.2-1.821 18.5-2.661 3.3-.84 7.415-1.888 9.145-2.33 1.73-.441 3.707-.454 4.395-.029.688.425 1.004 1.417.702 2.204-.302.788-3.63 2.375-7.396 3.527-3.765 1.152-11.571 3.027-17.346 4.165s-14.325 2.31-19 2.604c-4.675.294-24.25.704-43.5.912Zm-3.751-59.922c-2.657.398-4.763.271-5.122-.31-.335-.542.399-1.64 1.632-2.437 1.232-.799 3.591-1.77 5.241-2.158 1.65-.39 4.8-1.333 7-2.099 2.2-.765 8.275-2.136 13.5-3.045 5.225-.91 11.3-2.325 13.5-3.146 2.2-.821 7.15-2.325 11-3.343 3.85-1.017 9.925-3.06 13.5-4.54 3.575-1.479 8.638-3.765 11.25-5.08s4.75-3.025 4.75-3.801c0-.776-1.186-2.344-2.635-3.484-1.45-1.14-4.262-2.513-6.25-3.05-1.988-.539-8.245-1.438-13.904-2-5.66-.562-18.484-1.03-28.5-1.04-10.016-.01-22.206-.438-27.089-.951-6.811-.717-9.779-1.53-12.75-3.497-2.98-1.973-3.872-3.214-3.872-5.393 0-1.557.788-3.463 1.75-4.236.962-.773 2.875-2.04 4.25-2.815 1.375-.776 3.625-2.213 5-3.194 1.375-.981 5.2-2.647 8.5-3.701 3.3-1.054 6.563-1.706 7.25-1.45.688.258 1.25.795 1.25 1.193s-1.013 1.189-2.25 1.757l-7.25 3.326c-2.75 1.26-6.237 3.152-7.75 4.204-1.513 1.05-2.75 2.79-2.75 3.865 0 1.09.995 2.355 2.25 2.862 1.237.5 5.513 1.168 9.502 1.485 4.488.357 7.918.164 9-.507 1.314-.815 2.493-.694 4.748.487 2.145 1.123 5.865 1.572 13.05 1.577 5.681.003 10.505-.45 11.098-1.042.71-.71 1.824-.727 3.45-.054 1.321.547 4.202 1.272 6.402 1.612 2.2.34 8.725.806 14.5 1.037 5.789.231 12.743 1.148 15.5 2.044 2.75.893 5.788 2.32 6.75 3.171.996.881 1.75 2.96 1.75 4.826 0 2.653-.81 3.93-4.25 6.701-2.337 1.883-5.15 3.654-6.25 3.936-1.1.282-3.35 1.206-5 2.053-1.65.848-5.25 2.416-8 3.486-2.75 1.07-7.925 2.895-11.5 4.058-3.575 1.162-9.3 2.55-12.722 3.086-3.423.534-7.698 1.607-9.5 2.384-1.803.776-5.528 1.971-8.278 2.656-2.75.685-6.8 1.458-9 1.717-2.2.26-4.954.855-6.12 1.323-1.166.467-4.15 1.155-6.631 1.527Z" />
</svg>