<svg xmlns="http://www.w3.org/2000/svg" width="662" height="264">
    <path fill="#CCCC" fill-rule="evenodd"
        d="M526.068 263.875c-9.112-.069-18.368-.452-20.568-.851-2.2-.4-7.022-1.458-10.715-2.352-3.693-.895-10.443-3.462-15-5.705-4.617-2.272-10.292-6.045-12.82-8.522-3.527-3.458-5.271-4.445-7.856-4.445-1.828 0-6.312 1.436-9.966 3.191-3.654 1.755-10.243 4.017-14.643 5.027-4.4 1.01-11.155 2.348-15.01 2.974-4.524.734-13.163.916-24.344.515-10.027-.36-20.827-1.35-25.623-2.346-5.898-1.226-12.866-1.71-24.156-1.679-8.727.024-21.942.218-29.367.431-9.953.285-15.602-.048-21.5-1.27-4.4-.912-12.95-3.77-19-6.353-11-4.695-11-4.695-28.5-4.527-9.625.092-20.78-.127-24.79-.487-6.215-.558-7.95-1.157-11.759-4.065-3.732-2.849-5.307-3.411-9.555-3.411-3.05 0-6.274.7-8.05 1.75-2.492 1.473-5.527 1.75-19.154 1.75-11.463 0-17.468-.423-20.56-1.449-2.402-.797-6.418-2.75-8.924-4.338-3.516-2.23-5.373-2.78-8.132-2.411-1.967.263-6.726 1.357-10.576 2.43a6918 6918 0 0 1-13.908 3.86c-5.808 1.604-10.269 1.903-28 1.88-15.137-.022-22.76-.445-26.999-1.5-3.248-.81-6.388-2.247-6.977-3.194-.779-1.253-.742-2.052.136-2.93.878-.878 6.533-1.139 20.75-.958 19.542.25 19.542.25 21.032-3.318.953-2.28 1.283-5.1.915-7.82-.316-2.338-.766-5.208-1-6.375-.24-1.205-1.762-2.678-3.516-3.405-1.701-.704-4.07-2.082-5.263-3.062-1.93-1.584-2.004-1.948-.67-3.292 1.244-1.254 2.744-1.354 8.802-.586 4.016.51 8.27.823 9.454.697 1.475-.157 2.57.622 3.48 2.473.73 1.487 2.524 3.644 3.987 4.795 1.463 1.15 3.586 1.96 4.718 1.797 1.344-.192 2-.967 1.89-2.23-.094-1.064-1.047-2.639-2.119-3.5-1.07-.86-3.18-4.264-4.686-7.564-1.506-3.3-3.637-9.15-4.736-13-1.1-3.85-2.814-8.35-3.81-10-.997-1.65-2.094-4.575-2.438-6.5-.345-1.925-.684-5.267-.753-7.427-.103-3.211.421-4.397 2.877-6.5 1.904-1.632 3.41-4.22 4.112-7.073.61-2.475 1.33-7.115 1.6-10.31.297-3.53-.063-7.647-.918-10.49-1.273-4.23-1.237-5.008.378-8.119.982-1.892 2.573-3.922 3.536-4.51 1.401-.857 2.147-.588 3.732 1.344 1.244 1.516 1.703 3.004 1.234 4-.411.872-.92 4.93-1.13 9.018-.302 5.905.038 8.37 1.658 12 1.122 2.512 2.226 6.367 2.454 8.567.227 2.2 1.12 6.505 1.985 9.566.865 3.062 2.744 8.687 4.176 12.5 1.433 3.814 3.674 8.509 4.98 10.434 1.307 1.925 3.97 6.43 5.917 10.01 1.947 3.582 4.891 9.214 6.542 12.517 1.65 3.303 4.48 7.419 6.29 9.146 1.808 1.727 6.438 4.799 10.288 6.826 3.85 2.028 8.062 3.757 9.36 3.844 1.297.086 2.81-.537 3.362-1.384.743-1.14.016-3.703-2.788-9.839-2.086-4.563-5-9.815-6.474-11.67-1.475-1.856-3.596-5.529-4.715-8.162-1.119-2.633-2.869-7.263-3.89-10.288-1.02-3.025-2.598-6.625-3.505-8-.908-1.375-1.933-4.46-2.279-6.855-.346-2.395-1.29-5.635-2.1-7.2-.809-1.565-1.471-3.893-1.471-5.173 0-1.28.7-3.327 1.557-4.55.856-1.222 2.39-2.222 3.41-2.222s3.02 1.385 4.444 3.077c1.784 2.12 2.589 4.25 2.589 6.85 0 2.536.977 5.214 2.982 8.173 1.735 2.56 2.99 5.726 3 7.573.01 1.942 1.032 4.378 2.63 6.278 1.438 1.708 3.025 4.936 3.527 7.173.503 2.237 1.51 5.487 2.24 7.222.728 1.735 2.51 4.954 3.959 7.154 1.448 2.2 2.982 4.45 3.407 5 .425.55 2.306 3.025 4.18 5.5 1.873 2.475 4.422 5.58 5.663 6.9 2.054 2.184 3.23 2.436 13.08 2.813 5.954.228 11.764.948 12.912 1.6 1.148.653 3.539 2.143 5.313 3.312 2.475 1.63 5.534 2.29 13.133 2.828 6.37.452 11.9.289 15.486-.455 3.068-.637 7.266-.873 9.328-.525 2.062.348 5.018.151 6.568-.438 2.427-.923 2.726-1.451 2.154-3.803-.365-1.503-.884-5.207-1.154-8.232-.27-3.025-.715-6.95-.99-8.72-.273-1.772-1.687-4.635-3.141-6.363-2.613-3.105-2.647-3.344-2.901-20.727-.142-9.671-.528-18.66-.858-19.976-.493-1.962-.862-2.174-2.06-1.18-.999.83-1.458 3.22-1.458 7.588 0 4.461-.379 6.378-1.26 6.378-.692 0-1.795-.86-2.451-1.91-.687-1.1-.947-3.422-.613-5.482.452-2.787.207-3.716-1.115-4.223-.933-.358-2.201-.145-2.82.474-.832.832-.79 2.49.16 6.382.707 2.893 1.731 6.834 2.276 8.759.546 1.925 1.448 4.85 2.006 6.5.559 1.65 1.455 5.25 1.992 8 .538 2.75 2.35 7.154 4.029 9.786 2.65 4.157 3.067 5.763 3.173 12.207.098 5.92-.24 7.783-1.674 9.214-1.728 1.725-1.966 1.602-6.237-3.207-2.442-2.75-4.702-6.125-5.023-7.5-.32-1.375-1.733-5.425-3.14-9s-3.366-8.3-4.354-10.5c-.988-2.2-2.296-8.275-2.907-13.5-.61-5.225-1.605-14-2.21-19.5-.604-5.5-1.178-16.975-1.275-25.5-.098-8.525.234-18.875.737-23 .502-4.125 1.094-9.975 1.315-13 .22-3.025.928-7.075 1.573-9 .644-1.925 1.47-5.3 1.833-7.5s2.393-7.15 4.51-11c2.118-3.85 5.352-9.25 7.187-12 1.834-2.75 3.842-6.673 4.46-8.718.873-2.884.84-4.062-.146-5.25-.699-.843-2.608-1.532-4.243-1.532-1.635 0-6.192.965-10.128 2.144-3.935 1.179-9.405 3.247-12.155 4.595-2.806 1.376-8.066 5.59-11.988 9.606-3.843 3.935-8.49 9.405-10.327 12.155-1.837 2.75-5.092 6.804-7.233 9.008-2.413 2.484-4.66 6.238-5.912 9.875-1.11 3.227-2.705 7.244-3.545 8.927-.84 1.683-2.082 7.364-2.76 12.625-.68 5.26-1.235 18.115-1.235 28.565 0 19 0 19-2.75 18.812-2.608-.179-2.75.036-2.75 4.173 0 3.207.67 5.157 2.53 7.368 1.39 1.653 3.449 5.625 4.573 8.827 1.124 3.2 2.414 8.32 2.867 11.376.453 3.055 1.78 7.105 2.947 9 1.169 1.894 2.393 4.475 2.722 5.734.384 1.471-.037 2.992-1.175 4.25-.976 1.078-2.41 1.96-3.186 1.96-.776 0-2.986-1.201-4.91-2.669-1.925-1.468-4.31-4.28-5.299-6.25-.99-1.97-2.096-5.223-2.46-7.23-.364-2.006-1.465-4.706-2.447-6-.982-1.293-3.108-4.601-4.724-7.351s-3.448-6.35-4.071-8c-.623-1.65-.91-5.046-.635-7.547.354-3.225-.099-5.986-1.557-9.5-1.13-2.724-2.84-7.544-3.8-10.711-1.339-4.417-1.76-9.567-1.81-22.109-.048-11.978.361-17.941 1.529-22.299 1.037-3.872 1.294-6.757.735-8.266-.772-2.087-1.28-2.253-5.093-1.658-2.33.363-7.386 1.512-11.236 2.553-3.85 1.04-10.531 2.599-14.847 3.463-6.313 1.263-8.397 2.159-10.66 4.581-2.458 2.632-3.148 2.884-5.468 2.002-1.46-.555-4.538-1-6.84-.987-2.302.012-6.177.926-8.612 2.03-2.435 1.105-5.046 2.893-5.803 3.973-.756 1.08-2.488 2.243-3.849 2.584-1.36.342-2.902 1.422-3.426 2.4-.524.98-2.2 2.23-3.724 2.779-1.524.549-4.42 2.734-6.437 4.855-2.016 2.121-4.679 5.657-5.917 7.857-1.238 2.2-3.046 4.675-4.016 5.5-.971.825-3.3 3.803-5.177 6.618-2.588 3.883-3.568 6.616-4.06 11.32-.614 5.874-.487 6.4 2.418 10.014 1.686 2.098 4.945 5.157 7.242 6.797 2.297 1.64 5.301 3.318 6.676 3.729 1.375.41 3.625 1.732 5 2.936s4.975 3.764 8 5.688c3.025 1.924 7.63 4.727 10.232 6.23 2.602 1.502 5.189 3.585 5.748 4.63.76 1.42.62 2.296-.553 3.469-.918.917-3.28 1.569-5.684 1.569-2.653 0-4.847-.675-6.179-1.902-1.135-1.046-4.314-3.012-7.064-4.37a720.323 720.323 0 0 1-8.5-4.268c-1.925-.99-5.975-3.708-9-6.04-3.025-2.332-7.818-6.643-10.65-9.58-2.833-2.937-6.38-7.815-7.881-10.84-1.502-3.025-3.235-5.83-3.85-6.235-.616-.404-2.123-.741-3.35-.75-1.226-.008-4.652 1.535-7.613 3.428-2.96 1.894-6.574 4.859-8.029 6.588-1.455 1.73-3.766 5.057-5.136 7.395-1.882 3.21-2.491 5.672-2.491 10.066 0 4.8.618 6.921 3.538 12.142 2.659 4.755 4.69 7.002 8.18 9.047 2.553 1.496 8.821 3.931 13.928 5.411 7.939 2.3 10.52 2.614 17.784 2.16 6.856-.427 8.985-.21 11.018 1.122 1.386.908 2.81 2.809 3.166 4.223.409 1.63.14 3.045-.734 3.863-.76.71-3.562 1.57-6.23 1.91-3.946.504-5.32.248-7.384-1.376-1.395-1.096-3.938-2.002-5.65-2.011-1.714-.01-6.266-.841-10.116-1.849-3.85-1.007-10.825-3.77-15.5-6.141-4.675-2.371-9.844-4.594-11.486-4.94-1.848-.39-3.852-1.915-5.26-4.004-1.25-1.856-3.17-6.274-4.264-9.817C.895 184.688 0 179.799 0 177.366c0-2.912.996-6.378 2.916-10.145 1.604-3.146 5.092-7.784 7.75-10.305 2.659-2.52 7.447-6.346 10.64-8.5a654.188 654.188 0 0 1 12.093-7.916c3.458-2.2 9.328-6.7 13.044-10 3.837-3.407 7.78-8.01 9.123-10.65 1.432-2.815 6.027-8.041 11.65-13.25C74.547 99.805 78.288 97.18 85 94.117c4.675-2.133 11.814-4.875 15.863-6.092 4.05-1.218 11.041-2.81 15.536-3.537 4.494-.728 11.042-2.29 14.55-3.472 3.509-1.182 9.343-3.886 12.965-6.01 3.622-2.123 8.762-5.355 11.42-7.183 2.66-1.828 6.776-4.899 9.148-6.824 2.372-1.925 7.656-6.65 11.74-10.5 4.086-3.85 9.87-8.192 12.853-9.649a589.713 589.713 0 0 1 11.107-5.246c3.124-1.43 8.974-3.328 13-4.218 4.025-.891 8.893-2.224 10.818-2.962 1.925-.738 7.1-1.641 11.5-2.007 4.4-.366 11.375-1.506 15.5-2.535 4.125-1.029 9.075-2.524 11-3.322 1.925-.798 5.867-1.922 8.76-2.498 2.893-.575 7.911-2.162 11.15-3.525 3.24-1.364 9.423-3.205 13.74-4.092 4.318-.887 10.55-2.529 13.85-3.65 3.3-1.12 8.925-2.4 12.5-2.844 3.575-.444 8.975-1.353 12-2.02 3.37-.744 14.79-1.256 29.5-1.323 14.749-.067 27.855.398 34 1.206 5.5.723 12.25 2.126 15 3.118s8.825 3.026 13.5 4.52c4.675 1.494 11.875 4.278 16 6.185 4.125 1.908 10.2 4.875 13.5 6.594 3.3 1.719 8.7 4.612 12 6.43 3.3 1.818 11.85 6.295 19 9.948 7.15 3.654 17.725 9.368 23.5 12.698 5.977 3.447 13.946 9.18 18.5 13.31 4.4 3.992 13.175 13.234 19.5 20.538 6.325 7.305 17.8 19.634 25.5 27.397 14 14.116 14 14.116 29.5 21.702 14.854 7.27 16.042 8.08 28.5 19.447 7.15 6.524 14.7 14.322 16.777 17.33 2.077 3.007 5.605 9.027 7.84 13.377 2.456 4.778 4.445 10.348 5.024 14.07.616 3.955.611 8.967-.012 13.99-.7 5.632-2.012 9.933-4.677 15.325-2.261 4.575-5.506 9.185-8.328 11.833-2.543 2.385-9.059 6.678-14.48 9.539-5.87 3.099-10.26 6.094-10.86 7.408-.552 1.213-2.101 2.705-3.441 3.316-1.34.61-4.58 1.11-7.197 1.11-2.82 0-9.016-1.444-15.203-3.544-5.744-1.949-12.124-4.065-14.18-4.703-2.887-.896-5.14-.869-9.924.12-3.403.702-9.147 2.768-12.765 4.59-3.618 1.821-9.02 4.038-12.007 4.925-4.137 1.228-9.376 1.582-21.999 1.487Zm8.732-7.07c7.483.141 11.087-.212 13.179-1.294 1.583-.819 3.145-2.326 3.47-3.348.324-1.023 1.727-2.378 3.117-3.011 1.39-.634 4.912-1.152 7.826-1.152 4.013 0 5.733-.481 7.092-1.983 1.536-1.696 1.697-3.062 1.118-9.454-.632-6.973-.48-7.86 2.269-13.307 1.62-3.21 5.052-8.178 7.625-11.04 2.574-2.863 6.103-5.854 7.842-6.647 1.74-.793 4.824-1.877 6.855-2.409 2.032-.532 6.345-2.604 9.586-4.604 5.892-3.637 5.892-3.637 15.046-2.524 5.034.612 11.507.968 14.382.79 4.356-.268 5.29-.026 5.589 1.449.268 1.325-1.054 2.395-5.247 4.25-4.224 1.868-7.33 2.479-12.597 2.479-5.14 0-8.612.658-13.108 2.485-3.364 1.367-7.706 3.73-9.65 5.25-1.942 1.52-4.497 3.215-5.677 3.765-1.18.55-4.141 2.543-6.581 4.43-2.44 1.886-5.193 4.355-6.12 5.487-.925 1.131-1.959 3.532-2.297 5.334-.358 1.909-.073 4.404.683 5.976.714 1.484 2.827 3.728 4.696 4.986 2.26 1.522 4.87 2.287 7.8 2.287 2.42 0 5.616.613 7.102 1.363 1.485.75 5.705 1.659 9.377 2.02 4.975.49 7.778.25 11-.945 2.378-.88 5.255-1.827 6.395-2.103 1.14-.275 4.065-2.022 6.5-3.883a696.29 696.29 0 0 1 8.906-6.667c2.462-1.807 6.137-4.951 8.165-6.988 2.425-2.436 4.23-5.57 5.272-9.154.872-2.998 1.582-8.757 1.579-12.797-.004-4.63-.575-8.455-1.543-10.346-.846-1.65-2.216-3.517-3.046-4.148-.864-.658-3.19-.922-5.447-.62-2.532.34-4.518.048-5.56-.817-.892-.74-1.909-2.12-2.26-3.066-.35-.946-1.955-3.094-3.565-4.774-1.61-1.68-2.735-3.193-2.5-3.362.235-.17 1.7-.856 3.256-1.525 1.555-.67 2.655-1.736 2.443-2.372-.212-.635-2.835-2.859-5.828-4.942-2.994-2.082-8.144-5.063-11.444-6.624-3.3-1.56-8.925-3.643-12.5-4.628-3.575-.985-8.039-2.54-9.92-3.456-2.764-1.347-6.398-1.653-19-1.6-9.477.04-18.98.68-24.26 1.631-6.543 1.18-10.73 2.69-17 6.13-4.576 2.51-11.432 7.402-15.236 10.869-3.804 3.467-7.787 6.454-8.852 6.637-1.064.183-3.015.062-4.334-.27-1.641-.411-2.398-1.31-2.398-2.85 0-1.237 1.157-3.952 2.571-6.033 1.414-2.08 3.647-4.192 4.96-4.692 1.314-.5 3.307-1.826 4.43-2.948 1.121-1.122 2.039-2.94 2.039-4.04s-.62-2-1.378-2c-.757 0-1.909-.64-2.559-1.424-.927-1.116-.746-2.277.836-5.378 1.11-2.175 4.174-5.855 6.81-8.177 2.635-2.322 6.719-5.354 9.075-6.737 2.356-1.383 6.181-2.942 8.5-3.464 2.319-.523 6.466-1.56 9.216-2.306 2.75-.745 7.652-1.59 10.892-1.877 3.241-.287 6.336-.965 6.877-1.506.542-.542.71-2.078.375-3.414-.335-1.335-2.397-3.612-4.582-5.058-2.283-1.51-4.736-4.291-5.768-6.538-.987-2.15-3.819-5.67-6.294-7.821-2.475-2.152-6.75-6.202-9.5-9-4.792-4.874-5.293-5.119-11.934-5.83-3.813-.408-10.788-.476-15.5-.15a59.816 59.816 0 0 0-16.566 3.506c-4.4 1.604-11.593 4.986-15.983 7.518-4.391 2.531-9.116 6.12-10.5 7.973-1.385 1.854-7.19 7.923-12.901 13.487-7.168 6.982-11.277 11.884-13.265 15.826-1.634 3.239-4.144 6.478-5.802 7.486-1.607.977-3.385 2.643-3.951 3.701-.566 1.058-1.464 3.67-1.995 5.803-.53 2.134-1.663 5.775-2.516 8.092-.853 2.316-2.508 9.066-3.678 15-1.17 5.933-2.764 11.8-3.541 13.038-.778 1.238-2.311 2.25-3.407 2.25-1.29 0-2.495-1.146-3.416-3.25-.783-1.788-1.732-5.95-2.11-9.25-.378-3.3-.669-7.35-.646-9 .022-1.65.796-5.025 1.72-7.5.922-2.475 2.288-6.525 3.036-9 .747-2.475 2.032-6.93 2.856-9.9.848-3.059 2.773-6.744 4.44-8.5 1.619-1.705 3.9-4.9 5.069-7.1 1.169-2.2 3.58-5.854 5.358-8.12 1.777-2.266 5.85-6.524 9.052-9.461 3.2-2.938 7.396-7.489 9.323-10.114 2.487-3.387 5.007-5.429 8.68-7.032 2.848-1.242 10.268-4.849 16.49-8.016C491.178 79.991 493.999 79 498.198 79c2.79 0 8.048-.49 11.687-1.088 3.638-.6 7.628-1.283 8.865-1.52 1.394-.266 2.25-1.154 2.25-2.333 0-1.047-1.768-3.417-3.93-5.267-2.16-1.85-8.012-5.516-13.003-8.147-4.99-2.632-12.334-5.852-16.32-7.156-6.523-2.134-8.595-2.33-20.747-1.965-7.425.223-16.49.809-20.146 1.301-4.567.615-9.728 2.387-16.5 5.663-5.42 2.623-11.654 6.485-13.854 8.582-2.2 2.098-5.276 4.294-6.837 4.88-1.56.586-5.45 3.078-8.646 5.537-3.195 2.458-7.635 6.544-9.866 9.08-2.232 2.534-5.036 6.63-6.232 9.101-1.197 2.471-3.103 5.357-4.237 6.414-1.134 1.056-3.097 3.833-4.362 6.17-1.266 2.336-3.222 6.273-4.347 8.748a835.773 835.773 0 0 1-4.656 10c-1.436 3.025-3.273 7.75-4.083 10.5s-2.164 5.788-3.009 6.75c-.844.962-2.124 1.75-2.845 1.75-.72 0-1.775-.87-2.345-1.934-.57-1.064-1.035-3.554-1.035-5.533 0-1.98 1.071-5.722 2.38-8.316 1.309-2.594 3.321-8.058 4.472-12.14 1.15-4.083 3.363-9.033 4.915-11 1.553-1.968 3.874-5.377 5.158-7.577 1.283-2.2 2.712-5.3 3.174-6.889.463-1.589 3.667-5.914 7.121-9.61 3.454-3.698 7.405-7.947 8.78-9.444 1.375-1.497 5.65-5.63 9.5-9.183 3.85-3.553 11.05-8.76 16-11.57 4.95-2.81 9.959-5.97 11.131-7.02 1.172-1.05 3.14-2.173 4.375-2.496 1.234-.323 4.1-1.568 6.37-2.768 2.268-1.199 4.279-2.98 4.468-3.956.189-.977-.077-2.197-.59-2.71-.578-.578-4.516-.505-10.344.193-5.175.62-10.535 1.74-11.91 2.49-1.375.751-3.4 1.794-4.5 2.318s-4.086 1.689-6.636 2.588c-2.55.9-6.6 3.15-9 5.001-2.4 1.851-6.164 4.346-8.364 5.546-2.2 1.199-6.852 4.954-10.338 8.345-3.486 3.39-7.924 8.495-9.863 11.342a1483.38 1483.38 0 0 1-6.88 10c-1.844 2.653-4.6 7.298-6.125 10.323-1.525 3.025-3.344 7.045-4.044 8.934-.7 1.888-1.942 4.174-2.761 5.078-.819.905-1.489 2.562-1.489 3.682s-.916 3.2-2.035 4.623c-1.286 1.635-1.952 3.809-1.81 5.91.123 1.828-.53 4.662-1.45 6.298-.922 1.636-2.357 6.04-3.19 9.787-.833 3.747-1.515 8.7-1.515 11.007 0 2.307-.429 5.69-.953 7.517-.607 2.118-.592 9.184.043 19.493.548 8.894 1.09 17.971 1.203 20.171.176 3.402-.092 4-1.793 4-1.311 0-2.619-1.266-3.797-3.677-.989-2.022-2.496-7.76-3.35-12.752-1.129-6.593-1.396-12.565-.976-21.824.318-7.01.948-16.572 1.4-21.247.453-4.675 1.596-10.75 2.539-13.5.943-2.75 2.637-9.713 3.764-15.473 1.724-8.815 2.7-11.427 6.161-16.498 2.262-3.313 4.899-8.175 5.86-10.805.96-2.63 2.634-5.555 3.717-6.502 1.084-.947 3.177-3.844 4.65-6.436 1.474-2.593 2.535-5.743 2.356-7-.288-2.033-.877-2.286-5.324-2.286-4.595 0-5.022-.203-5.27-2.5-.15-1.375.567-3.856 1.59-5.513 1.025-1.657 6.317-6.607 11.762-11s12.829-9.731 16.409-11.863c3.58-2.132 8.759-4.944 11.509-6.25 2.75-1.305 6.575-3.277 8.5-4.382 1.925-1.105 3.5-2.782 3.5-3.726 0-.945-1.125-2.11-2.5-2.587-1.375-.479-8.125-.623-15-.322-6.875.302-16.354.928-21.065 1.393-6.59.649-9.703 1.503-13.5 3.704-2.714 1.574-6.932 4.253-9.373 5.954-2.441 1.7-5.858 3.767-7.593 4.592-1.735.825-5.52 3.525-8.413 6-2.892 2.475-8.12 7.35-11.617 10.835-4.652 4.634-6.924 7.854-8.466 12-1.159 3.116-3.404 7.015-4.99 8.665-1.585 1.65-3.59 4.697-4.454 6.77-.865 2.074-1.85 5.786-2.187 8.25-.39 2.853-1.521 5.386-3.114 6.98-1.375 1.375-3.353 2.5-4.396 2.5-1.042 0-2.117-.58-2.39-1.289-.271-.708-.081-4.196.422-7.75.544-3.832 2.4-9.512 4.562-13.961 2.005-4.125 4.726-10.095 6.046-13.267 1.321-3.173 3.932-7.555 5.802-9.74 1.87-2.184 4.246-5.543 5.28-7.464 1.404-2.607 1.593-3.782.746-4.629-.847-.847-2.565-.412-6.768 1.717-3.098 1.568-6.397 4.034-7.332 5.48-.935 1.445-3.275 4.198-5.2 6.118-1.925 1.92-5.3 6.08-7.5 9.243-2.2 3.165-4.556 7.33-5.235 9.255-.679 1.926-2.106 4.916-3.172 6.644-1.065 1.729-2.271 4.493-2.68 6.143-.408 1.65-1.567 4.125-2.576 5.5-1.009 1.375-2.75 4.975-3.871 8-1.12 3.025-2.516 7.75-3.1 10.5-.584 2.75-1.918 6.488-2.964 8.307-1.406 2.444-1.902 5.262-1.902 10.8 0 4.974-.549 8.553-1.633 10.65-.897 1.736-1.783 6.039-1.967 9.562-.235 4.483.148 7.34 1.276 9.521 1.598 3.09 1.618 3.097 2.466.805.47-1.271.574-4.067.231-6.212-.445-2.783-.15-4.623 1.025-6.417 1.136-1.735 2.553-2.516 4.56-2.516 1.601 0 4.043.43 5.425.955 1.382.526 3.306 2.167 4.276 3.647 1.18 1.8 1.676 4.214 1.5 7.295-.146 2.531-.402 7.528-.57 11.103-.213 4.51.262 8.03 1.552 11.5 1.022 2.75 1.858 6.777 1.858 8.948 0 2.172 1.127 7.797 2.503 12.5 1.376 4.704 3.344 10.127 4.373 12.052 1.03 1.925 2.379 5.885 2.999 8.8.62 2.915 1.755 6.516 2.524 8.002.768 1.487 2.395 3.602 3.614 4.7 1.22 1.1 2.612 3.03 3.095 4.293.483 1.262 2.151 2.837 3.707 3.5 1.556.663 4.294 2.443 6.084 3.955 2.538 2.144 4.286 2.75 7.93 2.75 2.572 0 9.4-.976 15.174-2.17 5.774-1.193 12.298-2.173 14.498-2.176 2.2-.004 6.25.185 9 .42 4.521.385 4.982.234 4.81-1.574-.103-1.1-.707-4.25-1.34-7-.634-2.75-1.822-6.552-2.64-8.45-.818-1.897-2.523-4.679-3.788-6.182-2.025-2.407-2.18-3.19-1.29-6.55.772-2.919.625-5.31-.621-10.149-1.138-4.418-1.631-10.669-1.631-20.69 0-9.373.382-14.597 1.1-15.041.606-.375 1.899.161 2.873 1.19.974 1.03 2.278 3.984 2.899 6.565.62 2.58 1.153 7.756 1.184 11.5.031 3.744.594 8.382 1.25 10.307.657 1.925 1.869 3.5 2.694 3.5 1.18 0 1.562-1.663 1.793-7.798.221-5.895.667-7.941 1.827-8.387.845-.323 2.12.036 2.835.798.715.763 1.552 4.537 1.86 8.387.308 3.85 1.282 9.025 2.163 11.5.882 2.475 2.296 5.175 3.142 6 1.373 1.34 1.944 1.034 5.322-2.85 2.384-2.74 4.443-4.22 5.564-4 .979.193 2.11 1.025 2.515 1.85.404.825 1.24 3.107 1.857 5.071.617 1.964 1.122 5.297 1.122 7.406 0 2.446.836 4.954 2.31 6.929 1.27 1.702 2.809 5.858 3.42 9.236.61 3.378 2.27 7.982 3.69 10.231 1.548 2.452 3.682 4.397 5.33 4.858 1.513.423 6.125.67 10.25.549 4.125-.122 10.65-.8 14.5-1.508 6.884-1.265 7.005-1.341 7.318-4.585.174-1.814-.432-6.536-1.348-10.493-.916-3.957-2.06-10.243-2.543-13.969-.747-5.761-.583-7.524 1.097-11.787 1.087-2.756 1.976-6.963 1.976-9.347 0-2.385 1.177-7.88 2.617-12.213 1.439-4.333 3.266-10.291 4.06-13.241.795-2.95 2.502-7 3.794-9 1.291-2 3.737-6.433 5.434-9.85 1.697-3.416 4.023-6.713 5.169-7.326 1.145-.613 2.688-.882 3.429-.598 1.035.397 1.122 1.282.374 3.827-.535 1.82-1.599 7.287-2.363 12.148-1.132 7.195-2.171 10.13-5.59 15.788-2.31 3.822-5.024 9.97-6.033 13.662-1.377 5.043-1.84 10.334-1.862 21.28-.02 10.128.43 16.112 1.474 19.63 1.168 3.934 2.142 5.327 4.37 6.25 2.31.957 3.562.897 6.443-.307 1.966-.821 4.162-2.434 4.88-3.583.75-1.202 1.379-5.593 1.48-10.324.097-4.529.45-10.484.782-13.234.333-2.75 1.085-7.475 1.67-10.5.584-3.025 1.5-6.6 2.035-7.945.534-1.344 2.285-3.94 3.89-5.768 1.605-1.828 3.176-4.553 3.492-6.055.316-1.503.99-3.407 1.5-4.232.51-.825 1.78-3.163 2.824-5.196 1.043-2.032 3.637-5.82 5.764-8.416 2.127-2.597 8.817-9.87 14.867-16.165 7.797-8.112 12.31-11.993 15.5-13.329 2.475-1.036 6.975-3.077 10-4.535 3.025-1.458 7.75-3.521 10.5-4.584 2.75-1.064 6.413-2.355 8.14-2.871 2.025-.604 4.094-.576 5.82.08 1.969.75 2.594 1.602 2.36 3.217-.18 1.231-1.795 3.057-3.675 4.152-1.846 1.075-4.996 2.276-7 2.669-2.005.393-6.555 2.185-10.111 3.982-3.702 1.87-8.826 5.667-11.984 8.881-3.035 3.088-6.528 7.04-7.763 8.78-1.234 1.741-3.744 3.66-5.578 4.266-1.833.605-5.055 2.863-7.159 5.018-3.712 3.802-3.801 4.06-3.017 8.734.444 2.65.865 8.95.934 14.004.078 5.621.657 10.177 1.494 11.74 1.073 2.005 1.127 3.359.25 6.313-.614 2.068-1.39 5.11-1.724 6.76-.335 1.65-.825 4.35-1.09 6-.266 1.65-.974 5.861-1.574 9.358-.827 4.823-.789 7.721.16 12 .687 3.103 2.762 8.856 4.61 12.784 1.85 3.928 4.735 8.298 6.414 9.71 1.678 1.413 4.501 2.814 6.272 3.114 1.772.3 6.371.68 10.221.844 3.85.164 11.635.386 17.3.494ZM242.4 149.7c.706-.235 1.1-4.097 1.1-10.783 0-8.32-.285-10.417-1.417-10.417-.779 0-1.79 1.125-2.245 2.5-.457 1.375-.944 5.466-1.084 9.092-.173 4.5.19 7.13 1.146 8.283.77.93 1.895 1.527 2.5 1.325Z" />
</svg>