<svg xmlns="http://www.w3.org/2000/svg" width="182" height="180">
    <path fill="#a48f2c" fill-rule="evenodd"
        d="M91.196 92.686c8.76-13.282 12.204-18.247 13.304-19.603 1.1-1.356 4.653-5.417 7.896-9.024 3.243-3.607 7.868-7.639 10.278-8.959 2.41-1.32 6.679-2.62 9.486-2.89 5.103-.49 5.103-.49 12.603-15.96s7.5-15.47 10.618-14.962c1.716.28 5.777 1.577 9.025 2.884s6.364 3.102 6.924 3.989c.78 1.237.312 2.512-2.012 5.476-1.666 2.125-3.583 4.92-4.261 6.212-1.188 2.263-1.124 2.325 1.761 1.69 2.36-.517 3.459-.167 5.183 1.652 1.203 1.27 3.526 4.234 5.161 6.588 1.636 2.353 2.825 5.052 2.642 5.998-.182.946-1.9 2.435-3.817 3.309-1.918.873-7.312 3.08-11.987 4.904-4.675 1.824-8.912 3.682-9.415 4.128-.503.446-1.095 3.415-1.315 6.597-.22 3.182-.914 6.91-1.54 8.285s-1.919 3.4-2.871 4.5c-.953 1.1-2.034 2.787-2.403 3.75-.614 1.604.29 1.75 10.866 1.75 9.153 0 11.86.324 13.107 1.571.88.88 1.571 3.253 1.571 5.393 0 2.102-.722 7.315-1.605 11.584-.883 4.269-2.87 10.871-4.417 14.672-1.547 3.8-4.312 9.44-6.145 12.534-1.833 3.093-6.47 8.959-10.304 13.034-4.124 4.384-10.965 10.043-16.75 13.858-7.399 4.878-9.787 6.984-9.81 8.65-.018 1.213-.63 2.991-1.361 3.954-1.214 1.6-3.96 1.75-31.956 1.75-30.628 0-30.628 0-31.27-4.009-.6-3.76-1.144-4.302-8.761-8.744-5.452-3.18-11.25-7.86-17.642-14.241-7.717-7.705-10.4-11.212-14.155-18.506-2.548-4.95-5.543-12.375-6.654-16.5-1.112-4.125-2.33-10.362-2.707-13.859-.434-4.032-.274-7.261.438-8.824 1.106-2.426 1.262-2.455 9.861-1.807 4.806.361 23.07.324 40.586-.083l31.848-.741Zm56.963 19.995c-10.656 10.233-13.655 12.355-14.827 12.134-1.008-.19-4.287-2.702-7.287-5.58-3-2.88-6.166-5.235-7.034-5.235-.869 0-4.039 2.503-7.045 5.563-4.272 4.347-6.016 5.485-7.982 5.207-1.444-.204-4.59-2.572-7.387-5.562-2.679-2.865-5.612-5.208-6.518-5.208-.906 0-4.092 2.475-7.079 5.5-3.117 3.156-6.316 5.5-7.508 5.5-1.154 0-4.055-2.042-6.534-4.6-2.452-2.531-5.489-5.087-6.748-5.68-2.05-.965-2.9-.474-8.12 4.69-3.205 3.173-6.509 5.841-7.34 5.93-.83.088-4.536-2.704-8.234-6.204l-6.722-6.364-5.46 5.364c-4.279 4.204-5.382 5.913-5.101 7.901.197 1.396 1.495 4.571 2.884 7.056 1.389 2.486 4.505 7.141 6.925 10.346s7.113 8.024 10.429 10.71c3.316 2.685 9.513 6.696 13.772 8.913 6.13 3.192 7.865 4.595 8.333 6.735.325 1.487.767 3.273.983 3.97.305.989 5.924 1.209 25.535 1 25.145-.267 25.145-.267 26.275-3.712.95-2.891 2.566-4.257 10.062-8.5 5.392-3.052 11.54-7.63 15.519-11.555 3.623-3.575 8.487-9.356 10.808-12.848 2.321-3.49 4.755-8.131 5.408-10.312 1.188-3.964 1.188-3.964-4.41-9.562l-5.597-5.597Zm-100.423 3.437c.97-.532 4.013-3.268 6.763-6.08 2.927-2.993 5.718-4.993 6.734-4.825.954.158 4.405 2.937 7.67 6.175 3.406 3.38 6.502 5.656 7.266 5.344.732-.3 3.79-3.062 6.797-6.138 3.006-3.077 6.175-5.594 7.042-5.594.866 0 3.582 2.07 6.034 4.6s5.499 5.3 6.771 6.157c2.235 1.503 2.513 1.358 8.246-4.315 3.265-3.231 6.832-5.87 7.935-5.87 1.101 0 4.251 2.233 7 4.964 2.749 2.73 5.667 5.407 6.486 5.949 1.147.759 2.866-.379 7.5-4.965 3.317-3.283 6.908-5.949 8.014-5.949 1.101 0 4.263 2.234 7.026 4.965 2.764 2.73 5.874 5.102 6.912 5.272 1.662.27 1.972-.603 2.602-7.326.415-4.43.324-8.024-.216-8.564-.563-.563-30.192-.83-74.874-.674-73.944.256-73.944.256-74.266 3.622-.177 1.85.21 5.587.862 8.301.78 3.255 1.65 4.834 2.552 4.635.752-.166 3.832-2.742 6.844-5.724 4.528-4.484 5.817-5.263 7.444-4.5 1.082.507 4.47 3.304 7.53 6.215 4.48 4.264 5.904 5.105 7.326 4.325ZM111.79 93c10.937 0 11.986-.158 11.62-1.75-.223-.963.28-2.639 1.118-3.725 1.344-1.745 1.776-1.816 3.71-.609 1.203.752 2.823 2.002 3.6 2.779.776.776 2.152 1.275 3.056 1.108.905-.167 3.397-1.65 5.538-3.295 2.14-1.646 4.717-4.346 5.726-6 1.097-1.799 1.836-4.917 1.838-7.755.003-4.051-.525-5.333-3.606-8.743-2.084-2.307-5.213-4.476-7.403-5.132-2.087-.625-5.367-.842-7.29-.481-1.921.36-4.701 1.605-6.177 2.766-1.831 1.44-2.518 2.738-2.163 4.092.285 1.09 1.487 3.014 2.671 4.275 1.184 1.26 1.995 3.114 1.801 4.12-.194 1.005-1.141 1.979-2.106 2.165-.964.185-3.16-.846-4.878-2.292-1.719-1.446-3.79-2.375-4.602-2.063-.812.312-2.436 1.779-3.61 3.26-1.173 1.482-3.873 5.114-5.999 8.072-2.126 2.958-4.091 6.24-4.366 7.293-.473 1.808.169 1.915 11.522 1.915Zm-48.105-8.063c-.652-.035-2.15-.453-3.328-.929-1.179-.475-2.866-1.897-3.75-3.159C55.723 79.587 55 77.271 55 75.701c0-1.822 1.058-3.913 2.923-5.778C59.83 68.017 61.87 67 63.788 67c1.618 0 4.093.906 5.5 2.012 1.407 1.107 2.847 3.324 3.199 4.927.407 1.853.053 4.05-.971 6.031-.887 1.714-2.745 3.547-4.129 4.073-1.384.526-3.05.928-3.702.894ZM26 81.26c-1.925.283-5.486.126-7.914-.35-2.428-.474-6.132-2-8.23-3.388-2.1-1.39-5.171-4.887-6.827-7.774C.649 65.599.017 63.3.009 58.77c-.005-3.151.718-7.547 1.607-9.769.889-2.221 2.718-4.905 4.064-5.964 1.607-1.264 3.117-1.678 4.397-1.204 1.072.396 8.033 6.784 15.47 14.194 7.436 7.41 13.798 14.561 14.137 15.892.462 1.808.011 2.916-1.783 4.388-1.32 1.082-3.751 2.524-5.401 3.204-1.65.68-4.575 1.467-6.5 1.75ZM60.786 76c.892 2.325 1.825 3 2.647 3 .823 0 1.902-.787 2.397-1.75.495-.963.698-2.313.452-3-.247-.688-1.325-1.25-2.397-1.25-1.071 0-2.207.675-2.523 1.5l-.576 1.5Zm79.71 1c-.692 0-2.68-1.454-4.417-3.23-1.873-1.916-3.04-4.052-2.868-5.25.164-1.148 1.173-2.147 2.337-2.313 1.396-.2 3.095 1.01 5.334 3.796 2.662 3.313 3.057 4.365 2.08 5.543-.664.8-1.773 1.454-2.466 1.454ZM18.5 74.69c1.547-.147 2.07-1.04 2.31-3.94.25-3.009-.031-3.75-1.42-3.75-.953 0-2.555.745-3.561 1.655-1.006.91-1.829 2.448-1.829 3.417 0 .969.563 1.997 1.25 2.284.688.288 2.15.438 3.25.334Zm10.044.31c.666 0 1.792-.7 2.501-1.555 1.077-1.297.949-1.896-.776-3.62-1.137-1.138-2.563-1.762-3.168-1.387-.606.374-1.101 1.703-1.101 2.954 0 1.251.3 2.575.667 2.941.366.367 1.211.667 1.877.667Zm61.307-5c-.412 0-1.846-1.463-3.186-3.25-1.34-1.787-3.437-5.241-4.66-7.675-1.223-2.433-4.537-6.728-7.364-9.544-3.563-3.547-7.29-6.006-12.141-8.008-3.85-1.59-7.835-3.595-8.856-4.456-1.021-.862-2.718-3.255-3.77-5.317-1.669-3.268-2.37-3.75-5.46-3.75-1.95 0-4.416-.466-5.48-1.035-1.064-.57-1.934-1.83-1.934-2.8 0-.97.512-2.277 1.137-2.902.695-.695 2.928-.926 5.75-.594 4.1.483 5.208.142 9.963-3.063C57.29 15.289 60.37 14 62.475 14c1.8 0 5.17.67 7.49 1.488 2.318.818 6.035 2.928 8.26 4.69 2.224 1.761 5.545 5.55 7.38 8.418 1.834 2.868 4.249 8.511 5.365 12.54C92.358 46.143 93 51.485 93 58.03c0 6.11-.434 10.004-1.2 10.77-.66.66-1.537 1.2-1.95 1.2ZM9.959 67.462c.833-.32 2.309-1.3 3.278-2.177.97-.877 1.763-2.373 1.763-3.323 0-1.068-.994-1.919-2.6-2.226-1.43-.273-3.454-.273-4.5 0-1.271.333-1.9 1.385-1.9 3.18 0 1.476.55 3.234 1.222 3.906.672.672 1.904.96 2.737.64ZM151.5 61.154c3.1-.517 7.246-1.76 11.214-3.096s7.441-3.02 7.719-3.743c.277-.723.259-1.955-.042-2.738-.3-.782-1.126-1.645-1.835-1.917-.709-.272-3.937 1.34-7.172 3.581-3.236 2.242-6.784 4.94-7.884 5.994l-2 1.92ZM10.41 56c1.91 0 3.721-.403 4.026-.896.304-.493-.24-1.875-1.21-3.072-.969-1.197-2.591-2.257-3.605-2.354-1.015-.098-2.316.548-2.892 1.436-.576.888-.765 2.35-.42 3.25.415 1.08 1.808 1.636 4.1 1.636Zm135.419-4c.53 0 2.248-1.469 3.817-3.264 1.57-1.796 4.654-5.723 6.854-8.728s4.41-6.27 4.912-7.257c.674-1.324.412-2.172-1-3.24-1.051-.796-2.688-1.462-3.636-1.48-.949-.017-2.52 1.432-3.491 3.219-.972 1.787-2.034 4.375-2.362 5.75-.327 1.375-1.511 4.3-2.63 6.5-1.12 2.2-2.35 5.012-2.732 6.25-.39 1.258-.27 2.25.268 2.25ZM85.15 48.696c.4-.716.375-2.852-.057-4.749-.433-1.896-2.015-5.863-3.517-8.817-1.502-2.953-3.933-6.503-5.403-7.889-1.47-1.386-4.64-3.402-7.045-4.48-2.881-1.294-5.416-1.754-7.434-1.35-1.685.337-3.88 1.352-4.878 2.256-.999.904-1.816 2.62-1.816 3.814s1.013 3.112 2.25 4.263c1.237 1.151 3.6 2.467 5.252 2.924 1.65.458 5.031 1.833 7.512 3.056 2.48 1.223 6.737 4.485 9.459 7.249 3.527 3.58 5.158 4.65 5.677 3.723ZM121.682 41c-3.01 0-6.386-1.039-10.782-3.318-6.4-3.318-6.4-3.318-6.7-8.25-.166-2.713-.954-7.151-1.75-9.864-.798-2.712-1.45-7.044-1.45-9.627 0-3.06.55-5.153 1.58-6.008 1.248-1.035 2.247-1.065 4.75-.143 1.744.642 4.416 2.64 5.94 4.439 1.523 1.8 3.478 3.425 4.344 3.613.866.187 3.33-1.07 5.474-2.793 2.145-1.723 5.76-3.79 8.032-4.591C133.392 3.656 137.13 3 139.426 3c2.296 0 4.714.54 5.374 1.2.66.66 1.2 2.253 1.2 3.54s-.951 4.234-2.114 6.55c-1.163 2.315-3.164 5.611-4.447 7.324-2.333 3.113-2.333 3.113.114 4.228 1.347.614 2.447 1.97 2.447 3.016s-2.007 3.546-4.46 5.556c-2.454 2.01-6.04 4.314-7.968 5.12-1.93.806-5.48 1.466-7.89 1.466ZM20.467 35c-2.089 0-4.396-.895-6.111-2.37-2.099-1.806-2.756-3.267-2.756-6.13s.657-4.324 2.756-6.13C16.116 18.856 18.37 18 20.6 18c2.372 0 4.276.786 5.944 2.455C28.05 21.958 29 24.059 29 25.878c0 1.735-1.076 4.247-2.589 6.045C24.467 34.233 22.986 35 20.467 35Zm101.736-.01c1.487.006 3.83-.504 5.21-1.132 1.998-.91 2.312-1.504 1.548-2.93-.526-.984-1.97-1.932-3.209-2.108-1.341-.19-2.252-1.017-2.252-2.044 0-1.02 2.226-3.06 5.454-5 3-1.802 6.322-4.77 7.382-6.594 1.386-2.386 1.623-3.623.842-4.404-.78-.78-2.292-.624-5.382.557-2.363.903-5.534 2.79-7.047 4.195-1.512 1.403-3.66 4.334-4.77 6.511-1.11 2.178-2.674 3.959-3.474 3.959-.8 0-2.14-1.328-2.98-2.95-.838-1.623-1.525-3.818-1.525-4.878s-.686-2.496-1.524-3.192c-.838-.696-1.795-.995-2.125-.665-.33.33-.34 1.632-.022 2.893.318 1.26 1.111 4.666 1.762 7.567 1.03 4.592 1.717 5.595 5.297 7.74 2.261 1.357 5.328 2.47 6.815 2.475ZM20.469 29C22.472 29 23 28.5 23 26.607c0-1.317-.754-2.682-1.678-3.037-.931-.357-2.326.005-3.136.816-.803.802-1.187 2.169-.854 3.036.333.868 1.744 1.578 3.137 1.578ZM85.5 17.501c-1.67.279-4.134-.135-5.558-.932-1.407-.788-3.116-2.655-3.797-4.15-.681-1.495-.967-3.954-.635-5.465.332-1.51 1.422-3.488 2.423-4.393 1-.906 3.429-1.908 5.397-2.227 3.058-.496 4.02-.139 6.624 2.466C92.004 4.85 93 6.834 93 8.867c0 1.71-.977 4.132-2.25 5.578-1.237 1.407-3.6 2.782-5.25 3.056Zm-1.051-5.709c1.117-.16 2.185-1.101 2.373-2.09.189-.989-.191-2.442-.844-3.229-.876-1.056-1.685-1.165-3.083-.417C81.853 6.614 81 7.88 81 8.87c0 .989.319 2.117.709 2.506.39.39 1.623.578 2.74.417Z" />
</svg>