<?xml version="1.0" encoding="UTF-8"?>
<!-- Generated by Pixelmator Pro 3.6.18 -->
<svg width="471" height="609" viewBox="0 0 471 609" xmlns="http://www.w3.org/2000/svg">
    <path id="Shape" fill="#cccccc" fill-rule="evenodd" stroke="none" d="M 471 212.789337 C 471 231.238708 470.863312 231.859528 468.55835 233.369812 C 467.215454 234.249725 464.177948 235.687378 461.80835 236.564606 C 459.438751 237.441864 455.471466 238.574249 452.992126 239.081085 C 450.512787 239.587891 445.337769 241.175323 441.492126 242.608643 C 437.646454 244.041992 430.450012 246.094238 425.5 247.16922 C 420.549988 248.244202 414.924988 249.758484 413 250.534302 C 411.075012 251.310089 402.975006 252.822327 395 253.894775 C 387.024994 254.967255 374.200012 256.570496 366.5 257.45755 C 358.799988 258.344604 349.575012 259.546051 346 260.12738 C 342.424988 260.70874 330.725006 261.07077 320 260.931915 C 307.162476 260.765686 298.748352 261.099823 295.37323 261.909882 C 292.553497 262.586639 287.027832 263.130188 283.094025 263.117767 C 277.973145 263.101563 274.884766 262.540894 272.220795 261.143738 C 270.174377 260.070465 266.573639 258.249054 264.219208 257.096161 C 261.864777 255.943268 258.18158 255 256.034302 255 C 253.887054 255 251.017151 254.576813 249.656769 254.059601 C 248.296387 253.542389 243.20459 252.832001 238.341675 252.480988 C 233.47876 252.129944 228.149994 251.229065 226.5 250.479034 C 224.850006 249.729004 221.320602 248.622345 218.656906 248.019806 C 215.993195 247.417297 212.993286 247.184753 211.990417 247.503052 C 210.56514 247.955414 210.055206 249.437439 209.654861 254.290894 C 209.373169 257.705902 208.827469 264.469391 208.442215 269.320892 C 208.055466 274.191284 208.138916 278.53891 208.628555 279.028564 C 209.116302 279.516296 211.649796 280.156311 214.25853 280.450806 C 216.867264 280.7453 222.938812 281.431335 227.750839 281.975311 C 232.562881 282.519318 240.550003 283.282318 245.5 283.670868 C 250.449997 284.059418 265.299988 284.277618 278.5 284.155762 C 291.700012 284.033905 308.575012 283.294495 316 282.512604 C 323.424988 281.730713 333.100006 280.864319 337.5 280.58725 C 341.899994 280.310211 348.424988 279.665802 352 279.155182 C 355.575012 278.644592 361.649994 277.678802 365.5 277.009003 C 369.350006 276.339172 376.100006 274.974304 380.5 273.975922 C 384.899994 272.977539 391.805695 271.663757 395.846008 271.056396 C 399.886292 270.449005 404.484924 269.283478 406.065125 268.466309 C 407.645355 267.649139 411.539673 266.590332 414.719147 266.113403 C 417.898621 265.636475 423.875 264.102692 428 262.705017 C 432.125 261.307343 439.100006 258.732788 443.5 256.983765 C 447.899994 255.234741 453.975006 252.890228 457 251.773773 C 460.024994 250.657288 464.075012 249.037689 466 248.174652 C 467.924988 247.311584 469.837494 246.431732 470.25 246.219391 C 470.662506 246.00705 471 248.514587 471 251.791656 C 471 257.550659 470.904083 257.769196 468.132935 258.323425 C 466.55603 258.638794 463.068542 259.885895 460.382935 261.094727 C 457.697327 262.303589 454.600006 263.67868 453.5 264.150513 C 452.399994 264.622314 447.674988 266.174194 443 267.599121 C 438.325012 269.024048 431.314911 271.037872 427.422058 272.074341 C 423.529175 273.110779 417.454163 274.848694 413.922058 275.93634 C 410.389923 277.023987 403.565948 278.628296 398.75769 279.501465 C 393.949402 280.374634 386.299408 281.732391 381.75769 282.518707 C 377.215973 283.305023 371.024994 284.456146 368 285.076782 C 364.975006 285.697388 358.954102 287.293884 354.620239 288.624512 C 350.286346 289.95517 345.786346 291.032166 344.620239 291.017822 C 343.454102 291.003479 338 290.737823 332.5 290.42749 C 327 290.117126 313.950012 290.409576 303.5 291.077362 C 293.049988 291.745148 280.674988 292.497681 276 292.749634 C 271.325012 293.001587 261.424988 292.698517 254 292.07608 C 246.574997 291.453674 236.899994 290.504517 232.5 289.966858 C 228.100006 289.429169 220.899994 288.879181 216.5 288.744629 C 208.5 288.5 208.5 288.5 208.207993 296.846924 C 208.022797 302.140625 208.341934 305.707062 209.080429 306.596924 C 210.054306 307.770355 219.378677 308 266.050079 308 C 297.163086 308 325.316437 307.559692 329.677643 307.004913 C 333.97995 306.457581 340.875 305.514008 345 304.90802 C 349.125 304.302032 354.75 303.076813 357.5 302.185272 C 360.25 301.293762 363.625 300.466675 365 300.347321 C 366.375 300.227936 370.424988 299.845245 374 299.496887 C 377.575012 299.148499 381.850006 298.456665 383.5 297.959442 C 385.149994 297.462219 388.75 296.413666 391.5 295.629303 C 394.25 294.84494 399.875 293.463928 404 292.560394 C 408.125 291.65683 412.75824 290.223419 414.296082 289.375031 C 415.833954 288.526611 419.975433 287.007935 423.49939 286.000183 C 427.023346 284.992401 432.065094 283.044495 434.703308 281.671448 C 437.341492 280.298401 443.549988 277.482605 448.5 275.414124 C 453.450012 273.345642 458.225494 271.042633 459.112213 270.296326 C 459.998932 269.550018 462.248932 268.466614 464.112213 267.888763 C 465.975494 267.310883 468.287506 266.597046 469.25 266.302429 C 470.781555 265.833618 470.994995 266.499054 470.959961 271.633362 C 470.919891 277.5 470.919891 277.5 462.209961 281.407745 C 457.419464 283.556976 451.370789 286.369476 448.768402 287.657745 C 446.166016 288.945984 442.739227 290 441.153259 290 C 439.567322 290 437.196533 290.829926 435.884857 291.844238 C 434.573181 292.858582 431.475006 294.371979 429 295.207367 C 426.524994 296.042755 422.924988 297.283813 421 297.96524 C 419.075012 298.646667 415.25 299.799255 412.5 300.52655 C 409.75 301.253815 404.373932 302.776428 400.553162 303.910126 C 396.732422 305.043823 391.107422 306.473999 388.053162 307.088318 C 384.998932 307.702606 379.350006 308.864014 375.5 309.669189 C 371.649994 310.474396 363.549988 311.796265 357.5 312.60672 C 351.450012 313.417145 344.25 314.547211 341.5 315.11792 C 338.75 315.68866 321.875 316.398987 304 316.696411 C 284.09848 317.027588 263.747101 316.780151 251.5 316.058167 C 240.5 315.409668 227 314.549377 221.5 314.146393 C 216 313.743378 211.231781 313.658081 210.903961 313.956848 C 210.576141 314.255585 210.651093 317.424988 211.070526 321 C 211.48996 324.575012 212.309738 331.100006 212.892242 335.5 C 213.474747 339.899994 214.486969 345.596985 215.141647 348.159973 C 216.182251 352.233856 216.719818 352.886475 219.41597 353.348938 C 221.112183 353.639893 224.956863 354.343201 227.959702 354.911865 C 230.96254 355.48053 235.687546 356.615601 238.459702 357.434326 C 241.231873 358.252991 246.875 359.211426 251 359.564148 C 255.125 359.91684 271.325012 360.267273 287 360.342896 C 303.863708 360.424194 320.80777 359.956726 328.5 359.197937 C 335.649994 358.492615 344.537506 357.484558 348.25 356.957764 C 351.962494 356.431 358.037506 355.529724 361.75 354.954895 C 365.462494 354.380127 372.100006 353.482117 376.5 352.959381 C 380.899994 352.436646 386.524994 351.748413 389 351.429962 C 391.475006 351.111542 395.524994 350.174011 398 349.346619 C 400.475006 348.519226 403.850006 347.237061 405.5 346.497406 C 407.149994 345.757721 411.847809 344.857574 415.939606 344.49704 C 420.537903 344.091888 425.120911 342.973816 427.939606 341.569519 C 430.447815 340.319885 434.524994 338.796448 437 338.184082 C 439.475006 337.571686 443.282654 336.154755 445.461456 335.035339 C 447.640228 333.915894 450.877655 333 452.65567 333 C 454.620911 333 456.975891 332.064636 458.661774 330.614502 C 461.339355 328.31134 461.455902 327.802216 462.038391 315.864502 C 462.507263 306.255493 463.12735 302.413116 464.820862 298.622894 C 466.019379 295.94046 467 292.520111 467 291.022095 C 467 289.524078 467.494019 286.881287 468.097839 285.149231 C 468.70163 283.417145 469.601624 282 470.097839 282 C 470.618652 282 471 298.490692 471 321.01181 C 471 360.023621 471 360.023621 467.25 359.443237 C 464.327515 358.990906 462.175964 359.517242 457.5 361.828308 C 454.200012 363.45929 447.225006 366.495911 442 368.576294 C 436.774994 370.656677 430.700012 372.556763 428.5 372.798645 C 426.299988 373.040588 422.924988 374.024567 421 374.985352 C 419.075012 375.946106 415.024994 377.298889 412 377.991547 C 408.975006 378.684204 403.350006 380.270752 399.5 381.517242 C 395.649994 382.763733 388 385.035461 382.5 386.565582 C 377 388.095703 369.350006 389.689514 365.5 390.107422 C 361.649994 390.52533 353.325012 391.459595 347 392.183624 C 339.93634 392.992188 324.119843 393.487671 306 393.468018 C 289.774994 393.450409 270.875 392.898071 264 392.240601 C 257.125 391.58313 247.225006 390.523376 242 389.88559 C 236.774994 389.247803 229.429092 388.429688 225.675751 388.067505 C 219.80957 387.501434 218.721527 387.651825 217.925751 389.138733 C 217.41658 390.090118 217 392.833099 217 395.234253 C 217 397.635437 217.539993 400.140015 218.199997 400.799988 C 218.860001 401.460022 220.82843 402 222.57428 402 C 224.320129 402 227.49263 402.608398 229.624268 403.35199 C 231.75592 404.095581 235.932877 405.020416 238.906387 405.407166 C 241.879883 405.793945 245.522018 406.735718 247 407.5 C 248.477982 408.264282 252.120117 409.206055 255.093613 409.592834 C 258.067139 409.979584 262.24408 410.904419 264.375732 411.64801 C 266.507385 412.391602 269.776672 413 271.640839 413 C 273.504974 413 277.610901 413.67099 280.765106 414.491089 C 283.919281 415.311218 289.424988 416.442261 293 417.004608 C 296.575012 417.566925 304.225006 418.696808 310 419.515442 C 315.774994 420.334106 327.582428 421.297272 336.238708 421.655823 C 345.501007 422.03949 358.051605 421.833923 366.738708 421.156281 C 374.857422 420.522949 385.100006 419.53363 389.5 418.957764 C 393.899994 418.381897 400.424988 417.448547 404 416.883698 C 407.575012 416.318848 412.975006 415.413391 416 414.871643 C 419.024994 414.329895 425.774994 412.96637 431 411.841614 C 436.225006 410.716797 443.745056 408.936096 447.711243 407.88446 C 451.677429 406.832825 457.077423 405.693542 459.711243 405.352753 C 462.345062 405.011963 465.962494 404.141174 467.75 403.417603 C 471 402.102051 471 402.102051 471 406.850159 C 471 411.308594 470.801727 411.667114 467.75 412.727814 C 465.962494 413.349091 460.450012 414.623871 455.5 415.560669 C 450.549988 416.497498 445.149994 417.862885 443.5 418.59491 C 441.850006 419.326904 437.799988 420.144012 434.5 420.410645 C 431.200012 420.677307 424.674988 421.33728 420 421.877258 C 415.325012 422.417206 409.25 423.316223 406.5 423.875061 C 403.75 424.433929 398.350006 425.349304 394.5 425.90921 C 390.649994 426.469116 383.450012 427.462219 378.5 428.116058 C 372.37265 428.925415 360.084076 429.13031 340 428.758057 C 317.663086 428.344025 309.407318 427.847717 306 426.71405 C 303.524994 425.890594 299.024994 424.951111 296 424.626282 C 292.975006 424.301483 285.549988 423.107666 279.5 421.973389 C 273.450012 420.839111 266.475006 419.675446 264 419.387482 C 261.524994 419.099548 257.924988 418.241943 256 417.48175 C 254.074997 416.721558 248.899994 415.133057 244.5 413.951813 C 240.100006 412.770569 234.699997 411.561157 232.5 411.264282 C 230.300003 410.967377 227.33287 410.136292 225.906387 409.417419 C 224.479889 408.698547 221.064346 407.812134 218.316284 407.447571 C 213.319824 406.78476 213.319824 406.78476 210.444183 411.330139 C 208.862595 413.830139 206.508591 416.358521 205.213074 416.948792 C 203.803619 417.590973 202.989059 418.704651 203.184921 419.721741 C 203.387344 420.772827 205.79953 422.241821 209.506134 423.57132 C 212.802765 424.753754 219.100006 426.963898 223.5 428.482758 C 227.899994 430.001587 233.524994 431.674438 236 432.200195 C 238.475006 432.725922 242.074997 433.5672 244 434.069641 C 245.925003 434.572113 250.425003 435.867493 254 436.948303 C 257.575012 438.029114 263.424988 439.396423 267 439.986694 C 270.575012 440.577026 275.075012 441.70694 277 442.49762 C 278.924988 443.28833 283.649994 444.107117 287.5 444.317139 C 291.350006 444.5271 299.674988 445.277466 306 445.984558 C 313.657227 446.840576 322.846466 447.051514 333.5 446.615723 C 342.299988 446.255737 354 445.586243 359.5 445.127991 C 365 444.669678 375.575012 443.524109 383 442.582214 C 390.424988 441.64035 400.549988 440.230835 405.5 439.450012 C 410.450012 438.669128 416.75 437.558838 419.5 436.982666 C 422.25 436.406525 426.975006 435.525208 430 435.02417 C 433.024994 434.523132 437.299988 433.709595 439.5 433.216339 C 441.700012 432.723053 447.549988 431.108978 452.5 429.629517 C 457.450012 428.150024 463.075012 426.439575 465 425.828461 C 466.924988 425.217346 469.0625 424.507813 469.75 424.251709 C 470.630859 423.923523 471 425.082092 471 428.174683 C 471 432.535645 470.970551 432.572083 466.33432 433.940979 C 463.768188 434.698669 460.280701 435.940643 458.58432 436.700928 C 456.887939 437.461182 454.149994 438.79718 452.5 439.669739 C 450.644196 440.651154 446.084747 441.409058 440.54541 441.656921 C 435.25647 441.893616 430.344147 442.685211 428.54541 443.590698 C 426.870422 444.433838 423.380524 445.530823 420.790039 446.028381 C 418.199554 446.52594 415.274567 447.388672 414.290039 447.945557 C 413.305511 448.502441 410.024994 448.888428 407 448.803345 C 403.975006 448.718262 396.774994 448.960419 391 449.341461 C 385.225006 449.722504 377.799988 450.476318 374.5 451.016602 C 371.200012 451.556885 363.549988 452.207581 357.5 452.462585 C 351.450012 452.717621 342.674988 453.200073 338 453.534698 C 333.325012 453.869324 320.725006 453.663696 310 453.077728 C 299.274994 452.49176 288.024994 451.544983 285 450.973755 C 281.975006 450.402527 275.225006 449.034729 270 447.934235 C 264.774994 446.83374 257.799988 445.259033 254.5 444.434875 C 251.199997 443.610718 247.149994 442.568726 245.5 442.119293 C 243.850006 441.669861 240.475006 440.386261 238 439.266846 C 235.524994 438.1474 229.899994 436.097168 225.5 434.710754 C 221.100006 433.324341 214.125 430.782593 210 429.062408 C 205.875 427.342224 201.317841 425.076935 199.872971 424.028381 C 198.244476 422.846619 195.669067 422.143738 193.097336 422.179199 C 190.289856 422.217957 187.744751 421.439758 185.224365 419.771912 C 183.175964 418.416382 179.25 415.936218 176.5 414.260498 C 173.75 412.584717 169.834869 410.378082 167.799698 409.356812 C 165.764526 408.335571 161.951874 405.700012 159.327103 403.5 C 156.702347 401.299988 149.855881 394.774994 144.112747 389 C 136.467239 381.312073 133.022232 377.027008 131.249481 373 C 129.917831 369.975006 128.194382 366.149994 127.419594 364.5 C 126.644806 362.850006 125.895943 359.939362 125.755447 358.031921 C 125.557816 355.348755 124.730965 354.047363 122.102119 352.281921 C 120.233284 351.026855 117.516075 350 116.063881 350 C 114.176102 350 112.397545 351.227386 109.82399 354.306213 C 107.844238 356.674622 104.742584 361.512115 102.931412 365.056213 C 99.853203 371.079651 99.609665 372.2995 99.198296 383.755249 C 98.813499 394.470764 99.013672 396.606567 100.791573 400.755249 C 101.90992 403.364868 103.780197 408.345428 104.947739 411.823181 C 106.288528 415.816925 109.238045 420.974396 112.954231 425.823181 C 116.190262 430.04541 121.84642 436.200012 125.523483 439.5 C 129.200531 442.799988 134.2995 446.722107 136.854523 448.21579 C 139.409531 449.709473 144.199997 452.29245 147.5 453.95575 C 150.800003 455.619049 154.625 457.609344 156 458.378601 C 157.375 459.147888 161.199997 461.0354 164.5 462.57312 C 167.800003 464.110809 172.631485 465.983826 175.236649 466.735382 C 177.841797 467.486938 182.791794 468.81897 186.236649 469.695435 C 189.681488 470.571899 193.399994 471.618896 194.5 472.022034 C 195.600006 472.425171 198.862503 473.260132 201.75 473.877502 C 204.637497 474.494873 209.362503 475.475586 212.25 476.056824 C 215.137497 476.638092 219.524994 477.603882 222 478.203064 C 224.475006 478.802246 228.975006 479.650574 232 480.088318 C 235.024994 480.526001 242.449997 481.393646 248.5 482.016357 C 254.550003 482.639099 262.200012 483.694397 265.5 484.361481 C 268.799988 485.028564 280.950012 485.706299 292.5 485.867554 C 304.049988 486.028839 317.774994 485.685364 323 485.104309 C 328.225006 484.523254 338.799988 483.149658 346.5 482.05188 C 354.200012 480.954132 362.975006 479.559265 366 478.952209 C 369.024994 478.345154 373.860626 477.425171 376.74585 476.907776 C 379.631042 476.390442 385.931061 475.029541 390.74585 473.883636 C 395.560638 472.737701 402.424988 471.429108 406 470.975647 C 409.575012 470.522186 414.975006 469.398499 418 468.478516 C 421.024994 467.558594 425.398834 466.269348 427.719604 465.613495 C 430.040375 464.957642 433.303101 463.41272 434.970093 462.180237 C 436.637054 460.947784 439.913239 459.544373 442.250488 459.061523 C 444.587708 458.578674 448.75 457.286621 451.5 456.190308 C 454.25 455.094025 459.200012 452.986237 462.5 451.506348 C 465.799988 450.026489 469.0625 448.583984 469.75 448.300842 C 470.659546 447.926239 471 449.261902 471 453.204956 C 471 458.148315 470.717499 458.832733 467.781128 461.003693 C 466.010773 462.312592 462.74826 463.668823 460.531128 464.017548 C 458.314026 464.366272 453.816895 465.932892 450.537567 467.498901 C 447.258209 469.064941 442.758209 470.723755 440.537567 471.18512 C 438.316895 471.646545 433.799988 472.511414 430.5 473.107117 C 427.200012 473.70282 422.924988 474.392456 421 474.639648 C 419.075012 474.886841 416.690155 475.536804 415.700348 476.084045 C 414.710541 476.631226 411.785553 477.535461 409.200348 478.093384 C 406.615173 478.651306 402.413605 479.498322 399.863586 479.975647 C 397.313538 480.453003 393.222687 481.524109 390.772797 482.355865 C 388.322906 483.187622 384.554199 484.044586 382.397919 484.260193 C 380.241638 484.47583 376.457489 485.380859 373.988708 486.271362 C 371.519928 487.161835 366.799988 488.122437 363.5 488.406036 C 360.200012 488.689636 353.674988 489.389404 349 489.961121 C 344.325012 490.532837 336 491.430847 330.5 491.956726 C 325 492.482574 310.375 492.923401 298 492.93631 C 285.625 492.949219 272.575012 492.481262 269 491.896393 C 265.424988 491.311523 260.475006 490.662842 258 490.454865 C 255.524994 490.246887 250.688766 489.821411 247.252823 489.509399 C 243.816879 489.197327 238.416885 488.722443 235.252823 488.454041 C 232.088776 488.185638 225.449997 487.482666 220.5 486.891907 C 215.550003 486.301117 208.800003 485.006409 205.5 484.014801 C 202.199997 483.023193 196.800003 481.41861 193.5 480.449036 C 190.199997 479.479492 186.149994 478.47702 184.5 478.221313 C 182.850006 477.965607 180.824997 477.229309 180 476.585144 C 179.175003 475.940948 176.893051 474.870758 174.929001 474.20694 C 172.964951 473.543121 170.48996 472.993469 169.429001 472.985443 C 168.368057 472.977448 165.699997 472.328308 163.5 471.542908 C 161.300003 470.757538 157.724243 469.192596 155.553864 468.065277 C 153.383484 466.937958 149.558487 465.26474 147.053864 464.347046 C 144.54924 463.429321 141.663376 461.609894 140.640823 460.303864 C 139.618286 458.997833 137.14328 457.037262 135.140823 455.947052 C 133.138367 454.856842 129.586014 452.510254 127.246689 450.732422 C 124.907372 448.95459 119.50808 444.125 115.248268 440 C 110.988457 435.875 106.635635 431.149994 105.57534 429.5 C 104.515038 427.850006 102.076897 423.575012 100.157249 420 C 98.23761 416.424988 96.215111 411.924988 95.662819 410 C 95.110527 408.075012 94.076988 405.857605 93.366074 405.072449 L 92.073486 403.644897 L 91.559265 405.072449 C 91.276443 405.857605 91.418541 408.975006 91.875031 412 C 92.33152 415.024994 94.742569 421.827789 97.232925 427.11731 C 99.723282 432.40686 103.752129 439.179382 106.185928 442.167419 C 108.61972 445.155487 112.611031 449.380676 115.055504 451.556702 C 117.499977 453.732788 121.300003 456.888977 123.5 458.570557 C 125.699997 460.252106 129.524994 462.579285 132 463.742096 C 134.475006 464.904907 139.199997 466.962158 142.5 468.313782 C 145.800003 469.665436 150.975006 471.883911 154 473.243713 C 157.024994 474.603546 161.200455 476.027832 163.278793 476.408752 C 165.357132 476.789734 168.608231 478.016327 170.503464 479.134552 C 172.398697 480.252747 176.098236 481.770935 178.72467 482.50824 C 181.351105 483.245544 186.544327 484.950775 190.265152 486.297577 C 193.985992 487.644409 199.343872 489.053253 202.171539 489.428375 C 204.999207 489.803467 208.479889 490.702301 209.906387 491.425781 C 211.33287 492.149261 214.074997 493.041473 216 493.408447 C 217.925003 493.775452 221.524994 494.434479 224 494.872986 C 226.475006 495.311493 230.300003 496.165314 232.5 496.770386 C 234.699997 497.375427 239.875 498.544708 244 499.368774 C 248.125 500.19281 254.199997 501.328644 257.5 501.892792 C 260.799988 502.45697 267.774994 503.370331 273 503.922516 C 278.225006 504.474701 286.774994 505.277588 292 505.706726 C 297.225006 506.135864 309.003662 506.489899 318.174774 506.493469 C 330.120178 506.498169 335.792664 506.107452 338.174774 505.115967 C 340.276947 504.241028 344.532166 503.809937 349.743805 503.94397 C 354.277893 504.060547 361.252899 503.657379 365.243805 503.048004 C 369.234711 502.438629 375.875 500.858704 380 499.537048 C 384.125 498.215393 390.649994 496.611267 394.5 495.97229 C 398.350006 495.333313 402.850006 494.387695 404.5 493.870911 C 406.149994 493.354126 412.450012 491.338409 418.5 489.391541 C 424.549988 487.444641 432.200012 485.185913 435.5 484.372162 C 438.799988 483.558411 443.975006 481.868256 447 480.616302 C 450.024994 479.364319 454.75 477.737183 457.5 477.000397 C 460.25 476.263611 463.573181 474.837097 464.884857 473.830383 C 466.196533 472.823669 468.109039 472 469.134857 472 C 470.637085 472 471 472.760925 471 475.910797 C 471 479.533203 470.686584 479.968201 466.75 481.809692 C 464.412506 482.903168 460.024994 484.585297 457 485.547791 C 453.975006 486.510284 449.924988 488.141052 448 489.171753 C 446.075012 490.202454 442.436371 491.664246 439.914154 492.420227 C 437.391937 493.176208 433.54129 494.658081 431.357147 495.713348 C 429.173035 496.768616 425.161652 498.193207 422.442993 498.87915 C 419.724365 499.565063 415.700012 500.570282 413.5 501.112946 C 411.299988 501.65564 407.475006 502.711731 405 503.459869 C 402.524994 504.207977 398.024994 505.115692 395 505.47699 C 391.975006 505.838287 387.081024 506.807739 384.124481 507.631378 C 381.167938 508.454987 372.842926 510.002838 365.624481 511.071045 C 358.406006 512.139221 346.17627 513.543518 338.447296 514.191711 C 327.445892 515.114258 320.063354 515.09552 304.447296 514.105347 C 293.476288 513.409668 281.125 512.428711 277 511.925385 C 272.875 511.422058 266.350006 510.562073 262.5 510.014343 C 258.649994 509.466553 252.800003 508.581696 249.5 508.047943 C 246.199997 507.514191 240.350006 506.367676 236.5 505.500092 C 232.649994 504.632507 227.475006 503.46405 225 502.903503 C 222.524994 502.342957 218.699997 501.500122 216.5 501.030579 C 214.300003 500.561005 210.024994 499.484802 207 498.639008 C 203.975006 497.793213 200.718613 496.628418 199.763565 496.050598 C 198.808533 495.472778 196.653107 495 194.973724 495 C 193.294357 495 190.096664 494.069641 187.867752 492.932526 C 185.63884 491.79541 181.360672 490.465576 178.360703 489.977325 C 175.360733 489.489075 169.889816 488.116699 166.20311 486.927643 C 162.516403 485.738586 158.149994 484.219482 156.5 483.55188 C 154.850006 482.884277 151.526108 481.490967 149.113571 480.455627 C 146.701035 479.420288 143.640106 477.71814 142.311493 476.673065 C 140.982895 475.627991 137.79892 474.141846 135.235992 473.370514 C 132.67308 472.599182 129.434006 470.93866 128.038071 469.680511 C 126.642128 468.422333 123.025002 466.292236 120 464.947021 C 116.141342 463.231018 112.183655 460.113525 106.738129 454.500549 C 101.13266 448.722717 97.666962 443.999634 94.263527 437.5 C 91.671532 432.549988 88.303528 425.350006 86.779076 421.5 C 84.353798 415.374969 84.006889 413.148224 84.003677 403.685364 C 84.00074 395.05545 84.42012 391.823242 86.079689 387.685364 C 87.223518 384.833435 89.012032 380.599121 90.054169 378.275787 C 91.096298 375.952454 92.218918 372.975952 92.548866 371.661316 C 92.977936 369.951782 92.661293 369.083984 91.437012 368.614197 C 90.20047 368.139709 88.028214 369.659912 83.612617 374.089966 C 80.250679 377.462952 75.780594 382.310059 73.6791 384.861328 C 71.577606 387.412598 69.336761 390.625 68.699455 392 C 68.062141 393.375 67.254501 394.725006 66.904686 395 C 66.554878 395.274994 65.238289 397.524994 63.978928 400 C 62.71957 402.475006 61.339676 405.850006 60.912498 407.5 C 60.485321 409.149994 59.450005 412.299988 58.611797 414.5 C 57.5602 417.260071 57.074181 422.278931 57.043892 430.690857 C 57.000187 442.829712 57.01712 442.919312 61.012852 451.690857 C 63.219921 456.535889 65.807419 461.960449 66.762856 463.745392 C 67.718285 465.530365 70.074997 469.129089 72 471.742493 C 73.925003 474.355957 80 480.93457 85.5 486.361633 C 91 491.788696 97.825302 497.549469 100.667336 499.16333 C 103.509369 500.777191 107.78437 503.515991 110.167336 505.249573 C 112.550301 506.983154 119.224998 510.742065 125 513.602661 C 130.774994 516.463318 138.875 519.939514 143 521.327515 C 147.125 522.715576 155.899994 525.397156 162.5 527.28656 C 169.100006 529.175903 177.875 531.272339 182 531.945251 C 186.125 532.618164 192.315613 533.793274 195.756912 534.556641 C 199.198227 535.320007 203.923218 536.365601 206.256912 536.880188 C 208.590607 537.394775 216.574997 538.520874 224 539.382568 C 231.425003 540.244324 243.350006 541.419373 250.5 541.993835 C 257.649994 542.568298 278.350006 543.445923 296.5 543.944092 C 316.975494 544.506042 335.952026 544.488647 346.5 543.898132 C 355.850006 543.374756 370.700012 542.249573 379.5 541.397766 C 388.299988 540.545959 397.975006 539.483398 401 539.03656 C 404.024994 538.589722 410.100006 537.538818 414.5 536.701172 C 418.899994 535.863586 426.325012 534.225464 431 533.061035 C 435.674988 531.896545 441.299988 530.696472 443.5 530.394165 C 445.700012 530.091858 448.399994 529.495361 449.5 529.068604 C 450.600006 528.641846 453.729187 527.288086 456.453796 526.060303 C 459.178375 524.83252 463.565857 523.648621 466.203796 523.429443 C 471 523.030884 471 523.030884 471 526.797119 C 471 530.440308 470.844818 530.606018 466.25 531.868652 C 463.637512 532.586609 460.375 533.557678 459 534.026672 C 457.625 534.495667 454.024994 535.184814 451 535.558167 C 447.975006 535.931519 443.25 537.03949 440.5 538.020386 C 437.75 539.001282 433.024994 540.522644 430 541.401123 C 426.975006 542.279663 420.450012 543.447449 415.5 543.996216 C 410.549988 544.544983 404.132782 545.408264 401.239502 545.914612 C 398.346252 546.421021 390.696259 547.530273 384.239502 548.379639 C 377.782776 549.229065 360.30014 550.457825 345.389221 551.110291 C 328.90567 551.831543 308.718018 552.023926 293.889221 551.601074 C 280.475159 551.218567 265.225006 550.508606 260 550.023376 C 254.774994 549.538147 246.899994 548.642395 242.5 548.032898 C 238.100006 547.42334 231.350006 546.534302 227.5 546.057251 C 223.649994 545.580139 217.125 544.678711 213 544.054016 C 208.875 543.429321 203.475006 542.701904 201 542.437378 C 198.524994 542.172974 195.484085 541.524414 194.242401 540.996277 C 193.000717 540.468079 189.044876 539.566284 185.451645 538.99231 C 181.858414 538.418274 177.024338 537.335083 174.709244 536.585205 C 172.394165 535.835388 168.925003 534.965088 167 534.651306 C 165.074997 534.337463 160.800003 533.202271 157.5 532.12854 C 154.199997 531.054871 147.899994 528.762634 143.5 527.034668 C 139.100006 525.306763 134.600006 523.481262 133.5 522.978027 C 132.399994 522.474854 129.25 521.220703 126.5 520.19104 C 123.75 519.161438 118.800003 516.96167 115.5 515.302734 C 112.199997 513.643799 106.800003 510.850067 103.5 509.094421 C 100.199997 507.338776 96.7939 505.075012 95.930893 504.063782 C 95.067879 503.052582 92.549324 501.300568 90.334091 500.170441 C 88.118858 499.040314 83.980598 495.570862 81.137955 492.460571 C 78.295311 489.350281 73.163872 483.440857 69.734756 479.328522 C 66.305641 475.216187 62.825607 470.647461 62.001354 469.175781 C 61.177097 467.704102 59.466694 465.037506 58.200462 463.25 C 56.934227 461.462494 55.409954 460 54.813187 460 C 54.110302 460 53.937054 461.496857 54.321278 464.25 C 54.647495 466.587494 55.753262 470.975006 56.778534 474 C 57.80381 477.024994 60.702324 483.562439 63.219677 488.527588 C 66.864891 495.717346 69.428963 499.148315 75.81456 505.380768 C 80.224396 509.684814 86.457642 514.884705 89.666222 516.936035 C 92.874802 518.987427 98.473244 522.507385 102.107208 524.758179 C 105.74118 527.009033 111.703064 530.205688 115.35585 531.861938 C 119.008636 533.518188 125.035393 536.327026 128.748642 538.103699 C 132.461884 539.880371 137.75 542.425659 140.5 543.759827 C 143.25 545.093994 147.524994 546.536804 150 546.966064 C 152.475006 547.395264 156.747131 548.773071 159.493622 550.027771 C 162.240097 551.282532 168.990097 553.392395 174.493622 554.71637 C 179.997131 556.040405 185.850006 557.359314 187.5 557.647278 C 189.149994 557.935242 192.309464 558.829163 194.521042 559.63385 C 196.732605 560.438477 201.682602 561.296021 205.521042 561.539551 C 209.359467 561.78302 214.074997 562.614258 216 563.38678 C 217.925003 564.159302 225.350006 565.291809 232.5 565.903503 C 239.649994 566.515137 250 567.522827 255.5 568.1427 C 262.251495 568.903564 279.793457 569.085449 309.5 568.702393 C 333.700012 568.390381 356.200012 567.666321 359.5 567.093323 C 362.799988 566.520325 369.549988 565.5625 374.5 564.964783 C 379.450012 564.367126 387.100006 563.421509 391.5 562.863525 C 395.899994 562.305542 402.424988 561.221008 406 560.45343 C 409.575012 559.685791 415.424988 558.550415 419 557.930359 C 422.575012 557.310242 427.524994 556.450684 430 556.020142 C 432.475006 555.589661 437.649994 554.455444 441.5 553.499634 C 445.350006 552.543823 452.132629 550.465393 456.572479 548.88092 C 461.01236 547.296387 466.07486 546 467.822479 546 C 470.766388 546 471 546.248718 471 549.383362 C 471 552.046753 470.521179 552.895081 468.75 553.36969 C 467.512512 553.701355 465.481384 553.978821 464.23642 553.986328 C 462.991455 553.993835 461.191467 554.433105 460.23642 554.962463 C 459.281403 555.491821 455.125 557.107788 451 558.553528 C 446.875 559.999268 441.020111 561.541809 437.989136 561.981323 C 434.95813 562.420898 430.038971 563.504883 427.057617 564.390259 C 424.076294 565.275635 419.773834 566 417.496643 566 C 415.219452 566 411.363617 566.631042 408.928131 567.402283 C 406.492676 568.173523 400 569.30127 394.5 569.908386 C 389 570.515564 377.975006 571.714417 370 572.572571 C 362.024994 573.430725 351.674988 574.509521 347 574.969971 C 342.325012 575.430359 331.299988 575.841309 322.5 575.883179 C 313.700012 575.925049 300.649994 576.125854 293.5 576.329346 C 286.350006 576.532898 276.674988 576.55896 272 576.387268 C 267.325012 576.215576 258.325012 575.386169 252 574.544189 C 245.675003 573.702148 237.350006 572.879578 233.5 572.716187 C 229.649994 572.552734 221.550003 571.620483 215.5 570.64447 C 209.449997 569.668457 202.475006 568.394043 200 567.812378 C 197.524994 567.230774 193.699997 566.334839 191.5 565.821533 C 189.300003 565.308167 184.800003 564.464478 181.5 563.946655 C 178.199997 563.428833 173.25 562.357605 170.5 561.566162 C 167.75 560.774719 163.25 559.612183 160.5 558.982788 C 157.75 558.353333 153.475006 557.005188 151 555.987 C 148.524994 554.96875 144.475006 553.460266 142 552.634766 C 139.524994 551.809326 134.574997 549.924927 131 548.447266 C 127.425003 546.969543 122.925003 544.976135 121 544.017456 C 119.074997 543.058716 115.025002 540.864014 112 539.140259 C 108.974998 537.416565 103.800003 534.593445 100.5 532.866638 C 97.199997 531.139832 93.375 528.839111 92 527.753845 C 90.625 526.66864 87.874397 524.817566 85.88755 523.640381 C 83.900703 522.463135 79.734505 519.796326 76.629333 517.713989 C 73.524162 515.631714 69.97477 512.427002 68.741783 510.592407 C 67.508804 508.757813 64.65686 504.836517 62.40414 501.878418 C 60.151417 498.920288 57.570461 495.07251 56.668686 493.327789 C 55.766907 491.583069 54.292683 487.983063 53.392635 485.327789 C 52.492584 482.672485 51.13604 479.612366 50.37809 478.527496 C 49.62014 477.442627 49 474.685059 49 472.399597 C 49 470.114166 48.234116 466.50177 47.298035 464.372131 C 46.361954 462.242462 45.457737 457.575012 45.288662 454 C 45.119587 450.424988 44.895966 445.78186 44.791729 443.681946 C 44.671326 441.256409 45.130634 439.538574 46.051102 438.971924 C 47.086079 438.334778 47.959293 433.711945 49.107727 422.789978 C 50.304649 411.406891 51.332695 406.094635 53.131073 402 C 54.459663 398.975006 57.260288 393.600952 59.354691 390.057617 C 61.449089 386.514343 66.38858 380.480164 70.331345 376.648376 C 74.274101 372.816589 79.75 367.954163 82.5 365.843018 C 85.25 363.731842 89.504898 360.765991 91.955322 359.252258 C 94.405746 357.738525 98.577766 354.25 101.226479 351.5 C 104.463165 348.139526 105.9534 345.788025 105.771156 344.328796 C 105.622025 343.134613 102.800003 339.284058 99.5 335.772034 C 96.199997 332.259979 91.699997 326.810211 89.5 323.661407 C 87.300003 320.512634 83.859322 314.796021 81.85405 310.957825 C 79.848778 307.119659 77.890076 302.071472 77.501381 299.739655 C 77.112694 297.407837 76.59317 288.075012 76.346901 279 C 75.929611 263.623291 76.045403 262.206848 78.047684 258.194 C 79.947197 254.387115 80.046989 253.517761 78.908569 250.694 C 78.20034 248.937286 77.305992 246.825012 76.92112 246 C 76.53624 245.174988 75.126617 242.024994 73.788628 239 C 72.45063 235.975006 70.313911 230.067688 69.040359 225.87265 C 66.926155 218.908539 66.767853 216.90863 67.219742 202.87265 C 67.654884 189.357056 68.002312 186.895996 70.095741 182.5 C 71.405334 179.75 73.603516 175.700012 74.980591 173.5 C 76.357666 171.299988 77.937881 168.518585 78.49218 167.319122 C 79.046486 166.119629 81.805374 162.519623 84.623055 159.319122 C 87.440735 156.118591 91.49073 151.524536 93.623055 149.110077 C 96.564781 145.779114 97.751823 143.353943 98.543938 139.056458 C 99.118095 135.941406 101.593102 128.466858 104.043938 122.446381 C 108.5 111.5 108.5 111.5 121.742607 98 C 129.026031 90.575012 138.251038 82.145325 142.242599 79.267395 C 146.234177 76.389404 153.100006 72.287537 157.5 70.152039 C 161.899994 68.016541 171.350006 63.68219 178.5 60.520081 C 185.649994 57.358032 194.425003 53.665833 198 52.315308 C 201.574997 50.964722 206.524994 49.490845 209 49.039978 C 211.475006 48.589111 215.75 47.317139 218.5 46.213318 C 221.25 45.109497 225.074997 43.74054 227 43.171204 C 228.925003 42.601868 234.100006 41.613098 238.5 40.973999 C 242.899994 40.3349 248.524994 38.974548 251 37.95105 C 253.475006 36.927551 258.649994 35.815247 262.5 35.479248 C 266.350006 35.14325 294.475006 34.638672 325 34.357971 C 361.841125 34.019226 382.685272 34.204834 387 34.910095 C 390.575012 35.494446 397.549988 36.487854 402.5 37.117676 C 407.450012 37.747498 415.916168 39.328674 421.313721 40.631409 C 426.711243 41.934143 433.10849 43 435.529785 43 C 437.95108 43 441.634918 43.719299 443.716064 44.598389 C 445.797241 45.477478 448.625 46.725159 450 47.370911 C 451.375 48.016724 456.651184 49.884949 461.724854 51.522583 C 470.949707 54.5 470.949707 54.5 470.974854 60.306519 C 471 66.113098 471 66.113098 468.25 64.626648 C 466.737488 63.809143 463.924988 62.379578 462 61.44989 C 460.075012 60.520142 456.924988 59.421875 455 59.009216 C 453.075012 58.596558 449.25 57.238342 446.5 55.990906 C 443.75 54.743469 439.700012 53.369141 437.5 52.936829 C 435.299988 52.504517 431.700012 51.636963 429.5 51.008911 C 427.299988 50.380859 423.700012 49.431396 421.5 48.898926 C 419.299988 48.366516 414.799988 47.537048 411.5 47.055786 C 408.200012 46.574524 402.350006 45.686096 398.5 45.081604 C 394.649994 44.477112 384.075012 43.33606 375 42.545959 C 365.924988 41.755859 349.459595 40.805115 338.410217 40.433105 C 325.658203 40.003784 313.787598 40.176208 305.910217 40.905212 C 299.084595 41.536804 288.100006 42.50415 281.5 43.05481 C 274.899994 43.605469 266.575012 44.530762 263 45.111023 C 259.424988 45.691284 254.362503 46.578735 251.75 47.083069 C 249.137497 47.587341 244.862503 48.421814 242.25 48.937378 C 239.637497 49.452881 235.699997 50.319458 233.5 50.862976 C 231.300003 51.406555 225.449997 53.029053 220.5 54.468506 C 215.550003 55.90802 209.024994 57.683838 206 58.414795 C 202.975006 59.145752 196.675003 61.50354 192 63.654297 C 187.324997 65.805054 179.899994 69.269165 175.5 71.352356 C 171.100006 73.435486 164.800003 76.519836 161.5 78.206421 C 158.199997 79.893005 152.865768 82.899048 149.646149 84.886475 C 146.426529 86.873901 139.403015 92.67157 134.03833 97.770203 C 127.382668 104.095795 123.311302 108.896759 121.22097 112.884521 C 119.051804 117.022675 118.080994 120.381805 117.895233 124.391968 C 117.684502 128.941315 118.111588 130.831482 120.066452 134.001251 C 121.800537 136.813049 123.362274 138.091797 125.5 138.450287 C 127.150002 138.72702 132.100006 139.206146 136.5 139.515076 C 140.899994 139.823975 145.999741 140.825378 147.832748 141.740387 C 149.736465 142.690704 151.987579 145.015503 153.082748 147.162201 C 154.137238 149.229156 154.994659 152.400757 154.988129 154.210175 C 154.981598 156.019562 154.337906 159.898254 153.557693 162.829437 C 152.777481 165.76062 150.64502 170.710632 148.818878 173.829437 C 146.992752 176.948242 143.777908 182.983063 141.674759 187.240143 C 139.425934 191.792145 137.469635 197.558716 136.925293 201.240143 C 136.416229 204.683075 136.277145 209.975006 136.616211 213 C 137.01358 216.545105 137.991074 219.341187 139.366348 220.866608 C 140.539856 222.168243 142.433105 223.855469 143.573578 224.616028 C 145.355225 225.804138 146.340744 225.769745 150.573578 224.371704 C 153.295151 223.472809 157.290222 221.039246 159.5 218.934265 C 161.699997 216.838562 166.133194 213.746033 169.351547 212.061951 C 173.150192 210.074219 176.658493 209.001312 179.351547 209.003723 C 181.726639 209.00589 184.894821 209.85791 186.762909 210.996887 C 188.55751 212.091064 190.80751 214.62561 191.762909 216.629181 C 193.24794 219.743439 193.498474 223.414948 193.489487 241.930939 C 193.482605 256.128479 193.033524 265.469086 192.185883 269.044922 C 191.474686 272.045227 190.494492 277.200012 190.00769 280.5 C 189.520874 283.799988 188.419998 289.649841 187.561295 293.499634 C 186.702576 297.349426 186 301.989868 186 303.811737 C 186 305.633606 185.376663 309.233765 184.614792 311.812103 C 183.852936 314.390442 182.535095 319.649994 181.686264 323.5 C 180.837433 327.350006 179.609024 335 178.956467 340.5 C 178.283051 346.175751 177.981476 356.553955 178.259079 364.5 C 178.528061 372.200012 179.489441 383 180.395462 388.5 C 181.301483 394 182.764725 400.75 183.647095 403.5 C 184.529465 406.25 186.375473 410.005432 187.749329 411.845337 C 189.83551 414.639282 190.748749 415.117126 193.28978 414.744141 C 195.184052 414.466125 197.749344 412.778473 200.087006 410.2724 C 202.730911 407.437988 204.456802 404.181763 205.920853 399.265747 C 207.389633 394.333862 207.996521 389.52713 207.988129 382.892181 C 207.981598 377.726501 207.308197 371.024994 206.491684 368 C 205.675171 364.975006 204.755737 359.350006 204.448502 355.5 C 204.141266 351.649994 203.475586 345.799988 202.969238 342.5 C 202.462891 339.200012 201.817703 334.924988 201.535507 333 C 201.253311 331.075012 200.772141 326.125 200.466232 322 C 200.160339 317.875 199.484512 309.325012 198.964401 303 C 198.44429 296.674988 197.996552 287.450012 197.969421 282.5 C 197.942276 277.549988 198.003677 272.149994 198.105865 270.5 C 198.208038 268.850006 198.901718 263.899994 199.647354 259.5 C 200.393005 255.100006 201.504211 249.475006 202.11673 247 C 202.729233 244.524994 203.905899 240.924988 204.731537 239 C 205.557175 237.075012 206.899796 233.271454 207.715164 230.547699 C 208.530518 227.823944 210.799973 223.54895 212.758408 221.047699 C 214.716827 218.546478 217.709869 215.223083 219.409592 213.662445 C 221.109314 212.101776 223.878067 209.750275 225.562378 208.436859 C 227.835327 206.664429 230.444519 205.8797 235.684143 205.392731 C 241.205704 204.879578 243.747421 205.120026 247.351913 206.496613 C 250.950516 207.870911 252.553894 209.269257 254.669235 212.878265 C 256.159149 215.420227 258.003632 219.975006 258.768127 223 C 259.532623 226.024994 260.790588 231.855896 261.563599 235.95752 C 262.336609 240.059143 263.639221 244.827271 264.458282 246.553314 C 265.277344 248.279388 267.64682 250.837646 269.723755 252.238342 C 271.80069 253.639038 275.075012 255.272339 277 255.867889 C 279.299133 256.579193 283.270142 256.665283 288.5737 256.118835 C 295.316925 255.424072 297.565948 254.699432 302.221161 251.721527 C 305.286682 249.760529 308.830811 247.333435 310.096985 246.328033 C 311.363129 245.322601 315.346802 241.830322 318.949554 238.567413 C 322.552307 235.304474 327.204407 230.91626 329.287598 228.815826 C 331.370758 226.715393 334.295776 224.220856 335.787598 223.27243 C 337.279419 222.324005 338.857941 220.978149 339.29541 220.281677 C 339.73288 219.585175 341.162262 218.746399 342.471802 218.417725 C 343.781372 218.08905 345.605438 216.988495 346.52533 215.972015 C 347.44519 214.955566 350.740814 213.31955 353.848907 212.336426 C 356.957001 211.353302 362.266632 210.537933 365.648041 210.524475 C 370.971649 210.503296 372.3797 210.921295 376.148041 213.641602 C 378.541626 215.369476 381.850006 219.043579 383.5 221.806305 C 385.149994 224.569031 388.620575 229.080444 391.212402 231.831665 C 393.804199 234.582916 396.941833 237.546295 398.184906 238.416962 C 399.533478 239.361542 402.513855 240 405.574615 240 C 409.289642 240 411.577179 239.379517 413.86969 237.75 C 415.610657 236.512512 419.899567 232.799988 423.400543 229.5 C 426.90155 226.200012 430.439301 222.97052 431.262207 222.323395 C 432.085144 221.67627 436.075317 219.446442 440.129242 217.368225 C 447.194702 213.746155 447.986664 213.57309 459.25 213.189514 L 471 212.789337 Z M 170.230942 400.966675 C 171.24176 400.986145 172.213669 399.996887 172.567047 398.588867 C 172.929459 397.144897 172.369812 394.36377 171.171814 391.655518 C 169.774857 388.497437 167.863556 386.321716 164.835709 384.442749 C 162.451065 382.962952 159.204742 380.510742 157.621658 378.993439 C 156.038559 377.476135 153.712357 375.250305 152.452301 374.04718 C 151.192261 372.844055 149.4673 370.397217 148.61908 368.60968 C 147.618393 366.500916 145.26889 364.375671 141.928055 362.557373 C 139.096222 361.016083 135.895859 359.524017 134.816147 359.241669 C 133.145355 358.804749 132.901184 359.170166 133.176514 361.695465 C 133.354431 363.327393 135.074997 367.32605 137 370.581299 C 138.925003 373.836609 143.649994 379.579163 147.5 383.34259 C 151.350006 387.106049 157.649994 392.603577 161.5 395.559326 C 165.350006 398.515076 169.278931 400.948364 170.230942 400.966675 Z M 301 384.497162 C 308.424988 384.253418 320.799988 383.841949 328.5 383.582764 C 336.200012 383.323608 344.75 382.846191 347.5 382.521851 C 350.25 382.19751 355.649994 381.235321 359.5 380.383667 C 363.350006 379.531982 369.026489 378.212341 372.11441 377.451111 C 375.202332 376.689819 379.702332 375.771118 382.11441 375.409485 C 384.526489 375.047852 387.850006 374.161743 389.5 373.440308 C 391.149994 372.718903 396.325012 371.133972 401 369.918243 C 405.674988 368.702515 411.632813 366.643372 414.239563 365.342346 C 416.846313 364.041351 422.021332 362.324951 425.739563 361.528198 C 429.457794 360.731415 437.450012 358.241333 443.5 355.99469 C 449.549988 353.748047 455.99057 351.249084 457.812347 350.441406 C 460.706818 349.158173 461.085297 348.564575 460.812347 345.73645 C 460.585876 343.389923 459.948364 342.420929 458.493774 342.212402 C 457.39032 342.054199 454.240326 343.092438 451.493774 344.519592 C 448.747192 345.946716 444.024994 347.495026 441 347.960236 C 437.975006 348.425476 433.700012 349.476898 431.5 350.296722 C 429.299988 351.116577 426.149994 352.239777 424.5 352.792725 C 422.850006 353.345703 419.25 354.485046 416.5 355.324615 C 413.75 356.164185 409.25 357.140442 406.5 357.494141 C 403.75 357.847778 400.600006 358.520386 399.5 358.988831 C 398.399994 359.457275 395.700012 360.147369 393.5 360.5224 C 391.299988 360.8974 387.25 361.550476 384.5 361.973694 C 381.75 362.396851 376.125 363.235199 372 363.836609 C 367.875 364.438049 361.125 365.207153 357 365.545746 C 352.875 365.884338 345.899994 366.573883 341.5 367.078064 C 337.100006 367.582275 321.799988 368.517639 307.5 369.156616 C 287.511963 370.049805 277.164764 370.04184 262.751282 369.122284 C 252.439499 368.464417 240.064499 367.53952 235.251282 367.066986 C 230.43808 366.594421 225.192154 365.870148 223.593674 365.457458 C 221.347397 364.877502 220.382202 365.12439 219.343674 366.544678 C 218.60466 367.555359 218 370.006256 218 371.99115 C 218 373.976013 218.539993 376.140015 219.199997 376.799988 C 219.860001 377.460022 222.042847 378 224.050781 378 C 226.058701 378 229.00621 378.437103 230.600784 378.971344 C 232.195343 379.505554 234.850006 380.214813 236.5 380.547424 C 238.149994 380.880005 241.524994 381.342316 244 381.574768 C 246.475006 381.80719 255.925003 382.239075 265 382.534546 C 274.075012 382.830017 282.850006 383.492188 284.5 384.006042 C 286.149994 384.519897 293.575012 384.740906 301 384.497162 Z M 168.31955 377.92572 C 169.644928 377.979828 170.052307 377.39624 169.81955 375.777039 C 169.623032 374.409973 167.959854 372.683655 165.5 371.293488 C 163.300003 370.050171 160.456207 369.025513 159.18045 369.016449 C 157.430176 369.004028 156.939316 369.481323 157.18045 370.961273 C 157.361496 372.072449 159.45047 373.990723 162 375.386963 C 164.475006 376.742432 167.318802 377.884827 168.31955 377.92572 Z M 166.5 362.687317 C 168.055481 362.541626 168.569992 361.649536 168.814926 358.673553 C 168.997345 356.457001 168.499954 353.885803 167.632721 352.562195 C 166.70134 351.140747 164.692871 350.028992 162.317795 349.620239 C 160.218002 349.25885 156.25 348.132385 153.5 347.116974 C 150.75 346.101593 146.024994 344.367981 143 343.264557 C 139.975006 342.161102 135.699997 340.439209 133.5 339.438141 C 131.300003 338.437073 128.309296 337.253204 126.853996 336.807343 C 125.398689 336.361511 122.807137 334.68811 121.094986 333.088715 C 119.382835 331.489349 115.623535 328.835693 112.74099 327.191742 C 109.858444 325.547821 106.594162 323.369629 105.487022 322.351379 C 104.379875 321.33313 102.681503 319.873383 101.712852 319.107513 C 100.744202 318.341614 99.676956 317.989716 99.341194 318.32547 C 99.005424 318.661224 102.00618 322.825623 106.009537 327.579681 C 110.01992 332.342072 115.306549 337.408081 117.782883 338.861694 C 120.254875 340.312775 123.503075 342.500397 125.001099 343.723114 C 126.49913 344.945801 130.824203 347.449951 134.612396 349.287842 C 138.400574 351.125732 143.975006 353.943695 147 355.549988 C 150.024994 357.15625 153.625 358.750183 155 359.092041 C 156.375 359.433899 159.074997 360.424835 161 361.294128 C 162.925003 362.163422 165.399994 362.790344 166.5 362.687317 Z M 167.991165 340.765656 C 169.094131 340.555023 169.697006 338.463135 170.232422 332.98877 C 170.635239 328.869934 171.435638 322.378967 172.011063 318.564362 C 172.830231 313.133972 172.7798 311.384949 171.778656 310.505402 C 171.075394 309.887573 168.356049 308.84613 165.735641 308.19104 C 163.11525 307.53598 159.192017 307 157.017349 307 C 154.631836 307 149.183243 305.363586 143.281708 302.874725 C 137.901764 300.605804 131.925003 297.689178 130 296.39328 C 128.074997 295.097412 125.150002 292.860474 123.5 291.422302 C 121.849998 289.984131 118.760017 287.914856 116.633377 286.823914 C 114.506729 285.732941 111.806732 283.79303 110.633377 282.513 C 109.460022 281.232941 106.025002 278.536652 103 276.52124 C 99.974998 274.505829 97.109573 272.024567 96.632385 271.007324 C 96.155197 269.990082 94.597839 268.864899 93.171585 268.506927 C 91.309746 268.039642 90.214821 268.353302 89.2892 269.619171 C 88.580139 270.588867 88 272.394684 88 273.632111 C 88 274.869537 88.449997 276.160095 89 276.5 C 89.550003 276.839905 90 278.470978 90 280.124542 C 90 281.778137 91.591339 286.575317 93.536308 290.784973 C 96.607262 297.431641 98.61409 299.943085 108.786308 309.869537 C 119.081245 319.915741 121.590073 321.812256 129.5 325.52774 C 134.449997 327.852875 142.774994 331.46637 148 333.557709 C 153.225006 335.649048 158.850006 337.554291 160.5 337.791565 C 162.149994 338.028839 164.171021 338.859894 164.991165 339.638367 C 165.81131 340.41684 167.161301 340.924103 167.991165 340.765656 Z M 175.185593 297.827423 C 176.112656 296.787964 177.400726 293.386688 178.047958 290.268982 C 179.163208 284.896881 179.108475 284.506256 177.001587 282.800201 C 175.778854 281.810089 173.759857 281 172.514938 281 C 171.27002 281 168.282379 280.269318 165.875732 279.376221 C 163.46907 278.483154 159.699997 277.433807 157.5 277.044312 C 155.300003 276.654846 150.286087 275.16272 146.357986 273.728546 C 142.429871 272.294342 135.229874 269.26651 130.357986 267.000061 C 125.486092 264.733582 120.375 262.118896 119 261.189606 C 117.625 260.260315 115.709282 259.274994 114.742859 259 C 113.776428 258.725006 111.313606 257.149994 109.269928 255.5 C 107.22625 253.850006 104.641968 252.049988 103.527077 251.5 C 102.412186 250.950012 99.135727 248.071442 96.246071 245.10321 C 93.356407 242.134979 88.904434 237.262726 86.352791 234.276001 C 83.078407 230.443298 81.481918 229.220245 80.926498 230.118927 C 80.493675 230.819244 80.623268 232.316498 81.21447 233.446106 C 81.805672 234.575745 83.510704 237.075012 85.003418 239 C 86.496132 240.924988 88.343521 243.590759 89.108719 244.923889 C 89.873924 246.25705 91.850212 248.732025 93.500473 250.423889 C 95.150726 252.115753 97.686539 255.075012 99.135612 257 C 100.584679 258.924988 103.059471 261.708008 104.635139 263.184479 C 106.210815 264.66095 110.13707 268.260956 113.360161 271.184479 C 116.583244 274.108032 121.083244 277.625 123.360161 279 C 125.63707 280.375 129.300003 282.630524 131.5 284.012299 C 133.699997 285.394073 137.300003 287.494171 139.5 288.679169 C 141.699997 289.864166 147.100006 292.265839 151.5 294.016205 C 155.899994 295.766571 162.649994 297.765381 166.5 298.457977 C 173.001404 299.627594 173.620056 299.582672 175.185593 297.827423 Z M 177.5 273.375244 C 179.699997 273.060974 182.07193 272.259979 182.770966 271.595245 C 183.469986 270.930511 184.464081 267.792816 184.980057 264.622589 C 185.496017 261.452332 186.220917 254.462891 186.590942 249.090485 C 187.09993 241.700256 186.927322 238.623352 185.881851 236.450439 C 184.973038 234.561554 183.130692 233.095062 180.5 232.166473 C 178.300003 231.389923 174.592407 229.90979 172.260895 228.877289 C 169.929398 227.844788 166.947891 227 165.63533 227 C 164.322769 227 160.705032 228.125 157.595917 229.5 C 153.505661 231.308899 150.191299 232 145.606339 232 C 140.921326 232 138.647491 231.510559 136.882431 230.122162 C 135.569427 229.089355 133.033737 225.988983 131.247574 223.232452 C 128.260178 218.622131 128 217.568085 128 210.075714 C 128 201.930786 128 201.930786 121.586525 195.715393 C 118.05912 192.296936 113.442116 187.25 111.326523 184.5 C 109.21093 181.75 106.696182 177.924988 105.738205 176 C 104.78022 174.075012 103.154541 169.125 102.125587 165 C 100.924065 160.183197 99.71312 157.392151 98.740761 157.198517 C 97.880775 157.027252 96.205833 158.511292 94.86338 160.633942 C 93.563522 162.68924 91.735649 165.749908 90.801445 167.435425 C 89.867233 169.120941 88.542725 171.625 87.858078 173 C 87.173439 174.375 86.080101 176.174988 85.428444 177 C 84.776787 177.825012 83.913063 180.075012 83.509064 182 C 83.105057 183.924988 82.569931 189.907715 82.319878 195.294891 C 81.865242 205.089783 81.865242 205.089783 87.338326 216.294891 C 91.458588 224.730347 94.462708 229.292969 99.492004 234.753815 C 103.166328 238.743439 108.496254 243.526794 111.336296 245.383545 C 114.176331 247.240265 118.46479 250.051056 120.866203 251.6297 C 123.267616 253.208374 126.867615 255.500946 128.866211 256.724335 C 130.864792 257.947723 134.975006 259.893646 138 261.048615 C 141.024994 262.203583 145.313583 263.961243 147.530197 264.954498 C 149.746796 265.947754 155.596802 267.755707 160.530197 268.972198 C 165.463593 270.18866 170.399994 271.805573 171.5 272.565308 C 172.804977 273.466614 174.89006 273.748077 177.5 273.375244 Z M 326.646606 254.271912 C 332.065979 254.146484 343.024994 253.347473 351 252.496338 C 358.975006 251.645203 368.424988 250.281555 372 249.466003 C 375.575012 248.650482 380.299988 247.942139 382.5 247.891937 C 384.700012 247.841705 387.625 247.476837 389 247.081055 C 390.555695 246.63327 391.441986 245.693268 391.346375 244.592407 C 391.261902 243.619415 390.246399 242.160461 389.089691 241.350281 C 387.933014 240.5401 385.612457 238.442352 383.932922 236.688629 C 382.253387 234.934875 379.820984 231.475006 378.527588 229 C 377.234222 226.524994 374.130768 222.806305 371.631042 220.736206 C 367.296112 217.146332 366.840668 217.001251 361.775055 217.596619 C 358.853973 217.939941 354.844086 219.183655 352.864197 220.360413 C 350.884308 221.537201 346.497192 224.75 343.115051 227.5 C 339.73291 230.25 334.151581 235.200012 330.712067 238.5 C 327.272583 241.799988 322.217773 246.393982 319.479218 248.708862 C 316.185303 251.493164 314.888092 253.185486 315.646606 253.708862 C 316.277222 254.143982 321.227234 254.397369 326.646606 254.271912 Z M 249.5 245.687347 C 253.5 245.5 253.5 245.5 253.200485 240 C 253.035751 236.975006 251.818604 230.225006 250.495712 225 C 248.846725 218.487 247.412567 214.949768 245.934448 213.75 C 244.570435 212.642853 242.068802 212 239.124405 212 C 236.330933 212 232.928955 212.826141 230.614624 214.066559 C 228.493958 215.203186 225.634613 217.469208 224.260529 219.102203 C 222.886459 220.735229 220.662354 223.692047 219.318085 225.672943 C 217.973801 227.653839 216.178818 231.011871 215.329208 233.135254 C 214.479599 235.258636 214.02356 237.619019 214.315796 238.380585 C 214.611694 239.151672 218.093658 240.469482 222.173569 241.354492 C 226.20311 242.228577 231.975006 243.252411 235 243.629669 C 238.024994 244.006897 241.625 244.666351 243 245.095123 C 244.375 245.523865 247.300003 245.790375 249.5 245.687347 Z M 430.086273 237.801239 C 431.413818 237.529266 437.450012 235.605469 443.5 233.526123 C 449.549988 231.446777 456.36145 228.877197 458.636536 227.815948 C 460.911652 226.7547 463.611633 225.245514 464.636536 224.462219 C 466.255676 223.224762 466.303314 222.906403 465 222.034302 C 464.174988 221.4823 460.448059 221.023743 456.717896 221.01532 C 452.923035 221.006744 448.357971 221.659241 446.353668 222.496704 C 444.383484 223.319885 441.142395 225.423828 439.151215 227.172119 C 437.160004 228.92038 434.298431 230.815979 432.792145 231.384552 C 431.285889 231.953125 429.816437 232.999176 429.526733 233.709137 C 429.23703 234.419128 428.701324 235.741547 428.336273 236.647888 C 427.803314 237.971008 428.148193 238.198303 430.086273 237.801239 Z M 182.643005 225.92392 C 183.821671 225.965759 185.059174 225.288208 185.393005 224.418213 C 185.726852 223.548218 186 221.838226 186 220.618225 C 186 219.398193 185.460007 217.859985 184.800003 217.200012 C 184.139999 216.540009 182.542648 216 181.250336 216 C 179.958023 216 177.545135 216.700989 175.888351 217.557739 C 173.742004 218.667664 172.965714 219.721527 173.188019 221.223633 C 173.390289 222.590454 174.73082 223.7742 177 224.589813 C 178.925003 225.281738 181.464355 225.88208 182.643005 225.92392 Z M 128.305298 193.796112 C 129.497787 193.614777 130.893112 191.949371 131.904663 189.5 C 132.813232 187.299988 134.955307 182.575012 136.664841 179 C 138.374374 175.424988 141.399139 169.041992 143.386536 164.815552 C 145.384262 160.567139 147 155.56723 147 153.633636 C 147 150.914551 146.353622 149.675934 144.095627 148.068085 C 141.683426 146.350464 139.685852 146 132.307526 146 C 125.068176 146 122.607422 145.583527 119.013458 143.75 C 115.569687 141.993103 114.043953 140.346863 112.051567 136.238312 C 110.442673 132.920532 108.947441 131.078033 108.004372 131.25116 C 106.995918 131.436279 106.228165 133.475922 105.647377 137.512848 C 105.17363 140.805786 105.028709 147.418488 105.325333 152.207703 C 105.783897 159.611694 106.518021 162.414276 110.228485 170.926147 C 113.460739 178.340973 116.117767 182.642487 120.475098 187.514526 C 124.515442 192.032135 126.967796 193.999481 128.305298 193.796112 Z M 307.777679 139.950958 C 305.974945 139.923981 302.95874 138.813416 301.074951 137.483002 C 299.191193 136.152588 295.971222 133.424835 293.919464 131.421356 C 291.867706 129.417877 289.209259 127.265961 288.01181 126.639313 C 286.814392 126.012695 283.539551 123.475006 280.734436 121 C 277.929321 118.524994 273.733582 114.641388 271.410553 112.369751 C 269.087524 110.098114 265.958466 106.38324 264.457062 104.114502 C 262.689331 101.443268 261.727264 98.65329 261.727264 96.19812 C 261.727264 93.850037 262.82605 90.487 264.613647 87.363892 C 266.201141 84.590332 268.960999 80.659851 270.746643 78.629517 C 272.532318 76.599182 274.799683 74.614441 275.785278 74.218994 C 276.770844 73.823547 279.135345 72.294495 281.039734 70.821167 C 282.944092 69.347778 286.751709 67.186829 289.501099 66.019043 C 292.250488 64.851196 296.524994 62.917969 299 61.7229 C 301.475006 60.527832 305.75 58.732056 308.5 57.732361 C 311.25 56.732605 315.75 55.278442 318.5 54.500793 C 321.25 53.723206 327.100006 52.11792 331.5 50.933533 C 338.301147 49.102844 341.310425 48.854614 351.581268 49.2771 C 360.179169 49.630798 364.605713 50.261841 366.933746 51.465759 C 368.73291 52.396118 372.07132 53.726318 374.352478 54.421692 C 376.633606 55.117065 381.783234 57.347778 385.796051 59.378784 C 389.808868 61.40979 394.390656 64.517944 395.977814 66.285767 C 397.564941 68.053589 399.356293 71.299988 399.958527 73.5 C 400.560791 75.700012 401.295715 81.749268 401.591705 86.94281 C 402.024414 94.534851 401.796021 97.125946 400.426422 100.163147 C 399.489532 102.240814 397.990784 104.603363 397.095856 105.413239 C 396.200958 106.223145 392.100769 107.315338 387.984375 107.840363 C 383.867981 108.365356 377.455048 109.945679 373.733459 111.352173 C 370.011871 112.758636 363.936859 115.041809 360.233459 116.425873 C 356.53006 117.809906 348.774994 121.456421 343 124.529236 C 337.225006 127.60202 327.674957 132.339996 321.777679 135.058075 C 315.55658 137.925385 309.679382 139.979401 307.777679 139.950958 Z M 311.986206 132.713867 C 312.880493 132.480011 318.761902 129.822784 325.056061 126.80896 C 331.35022 123.795105 342.575012 118.395721 350 114.810333 C 357.424988 111.224915 370.11441 106.170929 378.1987 103.579193 C 392.8974 98.866943 392.8974 98.866943 393.544891 94.549316 C 393.901001 92.174622 393.874756 86.842529 393.486603 82.700195 C 393.061127 78.159973 392.026428 73.928223 390.881348 72.045288 C 389.836639 70.327393 387.523438 68.068176 385.740936 67.024719 C 383.958435 65.981323 379.930969 63.782654 376.791046 62.138794 C 373.651093 60.494934 367.134064 58.16095 362.308746 56.952087 C 355.760773 55.311646 352.009033 54.909546 347.5177 55.366638 C 344.207977 55.703491 338.799988 56.400696 335.5 56.916016 C 332.200012 57.431274 326.799988 58.810913 323.5 59.981873 C 320.200012 61.152771 315.700012 62.471741 313.5 62.912903 C 311.299988 63.354004 307.700012 64.512939 305.5 65.48822 C 303.299988 66.463501 297.225006 69.261902 292 71.706909 C 284.221832 75.346619 281.110901 77.523438 274.835785 83.717407 C 269.3815 89.101196 266.899872 92.352905 266.229309 94.99469 C 265.287048 98.706879 265.287048 98.706879 274.95929 107.513214 C 280.279022 112.35672 285.501953 116.653839 286.565765 117.062378 C 287.629608 117.470947 290.26767 119.637604 292.428131 121.877197 C 295.443298 125.002747 296.663513 125.694214 297.678131 124.852142 C 298.589691 124.095642 299 121.038574 299 115.00351 C 299 107.516388 299.363007 105.602417 301.512421 101.756714 C 302.894257 99.284332 305.031738 96.529175 306.262421 95.634094 C 307.493103 94.739014 310.575958 92.653503 313.11322 90.999695 C 315.650482 89.345886 320.718201 86.883789 324.374847 85.528442 C 328.031464 84.173096 333.95047 81.945129 337.528168 80.577393 C 341.105865 79.209656 347.063141 77.014526 350.766541 75.699341 C 354.46994 74.384155 360.014557 72.563782 363.087891 71.654053 C 366.161224 70.744324 371.843628 70 375.715454 70 C 380.975067 70 383.093933 70.408264 384.095123 71.614624 C 385.243927 72.99884 385.102905 73.498291 383.106781 75.114624 C 381.815826 76.159973 379.156982 77.019531 377.139221 77.043884 C 375.137634 77.068054 371.700012 77.757996 369.5 78.577148 C 367.299988 79.396362 363.25 80.46283 360.5 80.947144 C 357.75 81.431519 351.598175 83.404358 346.829254 85.331299 C 342.060333 87.258179 335.310333 89.867981 331.829254 91.130798 C 328.348175 92.393616 322.125 95.712524 318 98.506073 C 312.594727 102.166687 309.98056 104.681213 308.640198 107.509155 C 307.128632 110.698242 306.85556 113.151947 307.181885 120.613037 C 307.436951 126.444855 308.089783 130.403259 308.971832 131.466064 C 309.735474 132.3862 311.091949 132.947723 311.986206 132.713867 Z"/>
</svg>
