<svg xmlns="http://www.w3.org/2000/svg" width="182" height="183">
    <path fill="#a48f2c" fill-rule="evenodd"
        d="M150.857 181.924c-3.496-.042-7.728-.604-9.404-1.25-1.676-.646-4.696-2.213-6.712-3.482-2.016-1.27-4.99-3.98-6.61-6.026-1.619-2.044-3.721-6.094-4.671-8.999-1.221-3.733-1.567-7.046-1.181-11.304.312-3.44 1.628-8.21 3.068-11.12 2.522-5.097 2.522-5.097-3.887-11.67-6.41-6.573-6.41-6.573-9.685-4.667-1.801 1.049-5.075 2.832-7.275 3.964-3.089 1.588-5.936 2.065-12.5 2.093-4.675.02-10.23-.188-12.344-.463-3.745-.487-3.91-.374-6.428 4.387-2.47 4.671-2.51 5.003-.923 7.5.914 1.437 2.559 4.413 3.656 6.613 1.14 2.287 2.004 6.048 2.017 8.782.012 2.63-.67 6.439-1.516 8.464-.846 2.024-2.309 4.533-3.25 5.574-.942 1.041-3.382 2.745-5.422 3.786C65.46 175.295 62.002 176 58.5 176c-3.58 0-6.965-.707-9.445-1.972-2.126-1.085-4.85-3.222-6.051-4.75-1.202-1.528-2.82-4.295-3.595-6.15-.775-1.855-1.4-5.005-1.387-7 .012-1.995.855-5.428 1.874-7.628 1.018-2.2 3.163-5.23 4.766-6.734 1.603-1.504 5.147-3.411 7.876-4.24 2.73-.827 6.642-1.51 8.695-1.515 3.475-.01 3.91-.359 6.286-5.048 1.404-2.771 2.346-5.359 2.093-5.75-.253-.392-3-3.323-6.106-6.514-3.105-3.19-6.095-7.092-6.646-8.67-.55-1.578-1.692-3.134-2.538-3.459-.846-.325-4.647.29-8.446 1.367-3.8 1.076-8.721 2.455-10.937 3.063-2.965.815-4.282 1.82-4.986 3.804-.526 1.483-1.585 3.821-2.354 5.196-.768 1.375-2.859 3.512-4.646 4.75-2.188 1.516-4.712 2.25-7.733 2.25-2.75 0-5.745-.78-7.746-2.016-1.793-1.108-3.984-3.539-4.868-5.4C1.723 117.72 1 114.518 1 112.466c0-2.052.917-5.215 2.038-7.028 1.146-1.855 4.003-4.249 6.533-5.473 3.248-1.573 5.442-1.999 7.91-1.536 1.878.353 5.21 2.14 7.403 3.973 3.989 3.332 3.989 3.332 15.266.428 6.202-1.597 11.586-3.404 11.964-4.016.378-.612.857-4.533 1.063-8.714.29-5.87 1.045-8.967 3.316-13.601 1.618-3.3 3.09-6.924 3.272-8.053.231-1.44-1.447-3.747-5.628-7.735-5.958-5.683-5.958-5.683-11.798-2.948-4.762 2.232-7.222 2.731-13.339 2.71-5.337-.018-8.654-.585-11.5-1.964-2.2-1.066-6.27-4.205-9.045-6.974-3.789-3.782-5.502-6.496-6.879-10.898-1.26-4.03-1.663-7.504-1.29-11.113.297-2.888 1.67-7.478 3.05-10.201 1.38-2.723 4.363-6.627 6.63-8.675 2.267-2.048 5.603-4.43 7.412-5.292 1.98-.945 6.26-1.615 10.751-1.683 4.103-.062 9.288.434 11.521 1.103 2.234.67 6.194 3.094 8.8 5.388 2.607 2.295 5.71 6.174 6.895 8.621 1.722 3.555 2.14 6.185 2.084 13.082-.052 6.246-.591 9.737-1.952 12.632-1.034 2.2-2.052 4.588-2.263 5.306-.21.719 1.78 3.644 4.422 6.5 2.643 2.857 5.568 5.756 6.5 6.442 1.426 1.049 2.502.717 6.756-2.085 2.783-1.832 7.482-3.913 10.441-4.623 3.245-.778 7.921-1.06 11.775-.708 3.515.32 7.794.87 9.507 1.22 2.673.545 3.417.212 5.239-2.346 1.167-1.64 2.377-3.645 2.688-4.454.31-.81-.54-2.785-1.89-4.39-1.35-1.604-2.967-4.818-3.593-7.142-.857-3.182-.85-5.188.03-8.12.641-2.143 2.252-5.067 3.58-6.499C109.996 22.17 112.846 20.1 115 19c2.156-1.1 5.232-1.999 6.837-1.999 1.605 0 4.435.667 6.29 1.483 1.855.816 4.334 2.31 5.51 3.32 1.175 1.01 3.087 3.699 4.25 5.976 1.161 2.278 2.112 5.299 2.112 6.713 0 1.415-.699 4.245-1.553 6.29s-2.715 4.93-4.135 6.413c-1.42 1.483-4.412 3.428-6.65 4.324-2.438.975-5.322 1.392-7.198 1.04-2.267-.425-3.565-.1-4.712 1.177-.871.97-2.151 3.018-2.845 4.55-1.195 2.641-1.022 3.031 3.334 7.5 2.528 2.593 5.714 7.189 7.08 10.214 1.367 3.025 2.97 6.738 3.56 8.25C127.958 87 127.958 87 141.86 87c13.903 0 13.903 0 16.548-3.468 1.665-2.183 4.13-3.912 6.653-4.668 3.382-1.014 4.55-.943 7.48.454 1.91.911 4.391 3.125 5.514 4.92 1.437 2.297 1.888 4.282 1.523 6.712-.302 2.012-1.79 4.723-3.567 6.5-2.6 2.6-3.8 3.05-8.132 3.05-4.682 0-5.34-.307-8.362-3.906-3.28-3.906-3.28-3.906-16.531-3.317-7.289.324-13.644.98-14.123 1.46-.478.478-1.567 3.546-2.419 6.817-.851 3.27-2.697 7.907-4.101 10.303-1.778 3.035-2.294 4.884-1.698 6.093.47.955 2.592 3.494 4.714 5.643 2.123 2.149 4.67 4.498 5.66 5.22 1.537 1.119 2.545.935 6.858-1.25 4.147-2.102 6.466-2.563 12.893-2.563 6.423 0 8.773.466 13.022 2.584 2.852 1.421 6.993 4.637 9.202 7.146 2.335 2.653 4.64 6.669 5.51 9.598.823 2.769 1.496 6.898 1.496 9.175 0 2.278-.69 6.133-1.531 8.569-.843 2.435-3.074 6.534-4.959 9.107-2.514 3.434-5.139 5.496-9.861 7.75-5.196 2.48-7.66 3.056-12.792 2.995Zm-.075-5.963c2.355.021 5.882-.63 7.838-1.447 2.018-.843 3.374-2.032 3.135-2.75-.304-.91-3.315-1.264-10.755-1.264-7.428 0-10.452.355-10.754 1.262-.233.7 1.065 1.906 2.917 2.71 1.835.798 5.264 1.467 7.62 1.489ZM57.837 170c3.396 0 5.895-.686 8.265-2.27 1.869-1.248 4.209-3.836 5.2-5.75 1.177-2.273 1.642-4.794 1.34-7.268-.254-2.084-1.202-4.918-2.106-6.298-.905-1.38-3.083-3.386-4.84-4.458-1.984-1.21-5.004-1.95-7.96-1.952-3.994-.003-5.345.527-8.345 3.276-2.453 2.249-3.803 4.53-4.29 7.25-.392 2.184-.385 5.538.015 7.454.436 2.092 2.151 4.79 4.29 6.75 3.004 2.752 4.33 3.266 8.431 3.266Zm111.54-4.269c.618-.192 1.91-1.898 2.871-3.79.962-1.893 1.75-5.524 1.75-8.069.001-2.545-.714-6.342-1.59-8.436-.875-2.095-2.75-5.33-4.168-7.188-1.418-1.859-4.36-4.289-6.537-5.4-2.177-1.11-6.281-2.259-9.12-2.552-3.994-.412-6.351-.021-10.416 1.728-3.014 1.296-6.677 3.923-8.592 6.16-1.836 2.145-3.902 5.912-4.59 8.372-.696 2.484-.987 6.41-.656 8.831.329 2.397 1.137 5.54 1.795 6.986.658 1.445 1.578 2.627 2.045 2.627.466 0 1.58-1.83 2.474-4.065.894-2.236 2.654-4.739 3.91-5.562 2.126-1.393 2.246-1.995 1.736-8.737-.544-7.192-.526-7.259 2.659-9.938 1.763-1.484 4.297-2.972 5.629-3.307 1.333-.334 3.606-.311 5.051.052 1.446.363 3.983 2.014 5.639 3.67 2.898 2.898 2.988 3.254 2.402 9.53-.492 5.262-.27 7.034 1.151 9.188a241.627 241.627 0 0 1 3 4.669c.68 1.1 1.507 2.806 1.836 3.79.33.986 1.104 1.634 1.721 1.441Zm-17.596-.746c6.803.012 8.396-.281 8.919-1.645.428-1.116-.32-2.425-2.282-3.995-2.04-1.632-4.217-2.337-7.234-2.34-2.373-.003-5.176.455-6.227 1.018-1.051.563-2.418 1.97-3.037 3.127-.874 1.633-.823 2.297.227 2.962.744.471 5.08.864 9.634.873ZM151 139.679c-4.122 1.878-5 3.094-5 4.6 0 1.276.54 2.861 1.2 3.521.66.66 2.37 1.2 3.8 1.2 1.43 0 3.14-.54 3.8-1.2.66-.66 1.2-2.245 1.2-3.521 0-1.506-.878-2.722-2.5-3.461l-2.5-1.139Zm-59.5-15.192c1.65-.237 5.025-.92 7.5-1.518 2.475-.598 6.609-2.44 9.187-4.092 2.59-1.66 6.006-5.1 7.638-7.69 1.624-2.578 3.54-6.365 4.258-8.417.717-2.051 1.33-6.785 1.36-10.52.048-5.71-.46-7.841-3.203-13.412-1.792-3.643-5.026-8.218-7.184-10.168-2.617-2.364-6.232-4.233-10.848-5.608C96.4 61.928 91.693 61 89.748 61c-1.946 0-6.553.931-10.239 2.07-5.008 1.547-7.771 3.14-10.936 6.304-2.329 2.33-5.466 6.753-6.972 9.83-2.233 4.564-2.743 6.985-2.767 13.142-.023 5.929.496 8.694 2.42 12.896 1.346 2.942 3.935 7.043 5.752 9.112 1.818 2.07 5.147 4.717 7.4 5.881 2.251 1.164 6.344 2.695 9.094 3.4 2.75.706 6.35 1.09 8 .852ZM15.156 121c1.783 0 3.899-.964 5.39-2.455 1.593-1.593 2.454-3.588 2.454-5.685 0-1.941-.868-4.155-2.174-5.546a7.333 7.333 0 0 0-5.39-2.314c-1.768 0-4.267.852-5.552 1.893-1.782 1.443-2.339 2.897-2.339 6.107 0 3.21.557 4.664 2.339 6.107 1.285 1.041 3.658 1.893 5.272 1.893Zm75.823-5.459c-14.48.549-17.806.413-19.384-.79-1.504-1.145-1.78-2.229-1.306-5.142.329-2.03 1.556-5.24 2.726-7.133 1.17-1.893 3.558-4.565 5.306-5.937 2.755-2.161 3.009-2.73 1.904-4.267-.701-.974-2.194-3.707-3.319-6.071-1.313-2.764-1.828-5.279-1.441-7.04.33-1.508 1.47-4.168 2.53-5.911 1.06-1.743 3.726-4.088 5.926-5.21 2.2-1.122 4.862-2.04 5.917-2.04 1.055 0 3.494.659 5.42 1.463 1.927.805 4.64 2.815 6.029 4.466 1.389 1.65 2.825 4.772 3.19 6.937.507 3.001.171 4.848-1.416 7.785-1.145 2.117-2.621 4.61-3.28 5.541-1.001 1.415-.743 2.05 1.577 3.875 1.526 1.2 3.797 3.814 5.048 5.808 1.25 1.994 2.53 5.239 2.844 7.21.314 1.973.264 4.083-.111 4.69-.428.693-7.183 1.35-18.16 1.766ZM90 110c9.59 0 12.176-.296 12.617-1.443.304-.794.26-2.368-.098-3.497-.358-1.13-2.574-3.18-4.923-4.557C95.246 99.126 92.082 98 90.563 98c-1.518 0-4.3.73-6.182 1.623-1.881.893-4.354 2.934-5.494 4.536-1.14 1.601-1.82 3.571-1.512 4.377C77.825 109.709 80.33 110 90 110Zm78.177-15c.525 0 1.825-.466 2.889-1.035 1.208-.647 1.934-2.09 1.934-3.845 0-1.57-.912-3.635-2.068-4.682-1.889-1.709-2.302-1.741-4.75-.371-1.5.838-2.835 2.57-3.03 3.928-.227 1.594.412 3.044 1.861 4.217 1.215.983 2.638 1.788 3.164 1.788Zm-78.419-6c2.333 0 4.433-.77 5.928-2.174C97.307 85.302 98 83.528 98 80.898c0-2.863-.625-4.244-2.635-5.825C93.916 73.933 91.527 73 90.056 73c-1.47 0-3.385.563-4.254 1.25-.869.688-2.08 2.233-2.691 3.434C82.5 78.886 82 80.737 82 81.8c0 1.062.933 3.117 2.073 4.566C85.628 88.343 87.046 89 89.758 89ZM31 54.674c3.025-.16 6.8-.94 8.389-1.733 1.589-.793 2.828-1.891 2.754-2.441-.077-.576-4.699-1.123-10.889-1.29-5.915-.16-11.832-.023-13.149.305-1.455.362-2.034.956-1.475 1.515.505.505 2.707 1.597 4.894 2.427 2.306.875 6.286 1.387 9.476 1.217Zm91.673-8.678c1.936.003 4.34-.978 6.165-2.513 2.021-1.7 3.214-3.829 3.675-6.558.41-2.433.209-5.182-.508-6.912-.685-1.654-2.69-3.585-4.729-4.552-2.316-1.1-4.79-1.481-7.158-1.105-2.275.361-4.639 1.707-6.368 3.625-1.675 1.858-2.75 4.191-2.75 5.97 0 1.605.439 4.073.975 5.483.536 1.411 2.449 3.464 4.25 4.562 1.801 1.098 4.703 1.998 6.448 2Zm-92.982-2.011c4.505.008 8.472-.439 8.814-.994.344-.555.338-1.91-.011-3.01-.35-1.102-1.931-2.673-3.515-3.492s-4.14-1.486-5.68-1.482c-1.54.003-4.114.873-5.722 1.933-1.608 1.06-3.348 2.685-3.866 3.613-.659 1.176-.53 1.947.423 2.55.751.477 5.052.873 9.557.882Zm18.753-.289c.58-.188 1.822-1.884 2.758-3.769.936-1.885 1.724-5.077 1.75-7.094.026-2.017-.88-5.842-2.014-8.5-1.134-2.658-3.443-6.266-5.132-8.016-1.688-1.751-5.352-4.166-8.141-5.366-3.892-1.674-6.211-2.046-9.97-1.601-2.695.319-6.831 1.712-9.192 3.095-2.36 1.384-5.453 3.895-6.871 5.58-1.419 1.687-3.09 4.958-3.716 7.27-.625 2.313-.891 6.599-.591 9.524.3 2.926 1.08 5.963 1.732 6.75.653.787 1.571 1.431 2.04 1.431.468 0 1.59-1.463 2.492-3.25.901-1.787 2.753-4.442 4.115-5.898 2.036-2.18 2.282-3.01 1.386-4.685-.6-1.12-1.09-3.573-1.09-5.453 0-1.901 1.014-4.927 2.284-6.816 1.517-2.258 3.484-3.697 5.862-4.29 1.969-.492 4.745-.601 6.17-.244 1.424.358 3.763 1.66 5.198 2.895 1.774 1.525 2.794 3.621 3.186 6.541.33 2.466.072 5.405-.608 6.896-1.039 2.281-.882 2.917 1.279 5.201 1.354 1.432 3.262 4.299 4.24 6.372.977 2.072 2.252 3.615 2.833 3.427ZM28.996 28c2.03 0 3.458-.763 4.552-2.433 1.26-1.921 1.355-2.88.458-4.556-.9-1.68-1.904-2.06-4.813-1.818-2.621.219-3.776.832-4.023 2.136-.191 1.006-.074 2.919.26 4.25C25.903 27.458 26.7 28 28.997 28Z" />
</svg>