<svg xmlns="http://www.w3.org/2000/svg" width="180" height="179">
    <path fill="#a48f2c" fill-rule="evenodd"
        d="M89.5 178.88c-1.65-.065-5.7-.676-9-1.357-3.3-.68-8.93-2.432-12.512-3.891-3.582-1.46-9.013-4.617-12.07-7.016-3.057-2.4-7.66-7.158-10.228-10.575-2.568-3.416-6.05-9.103-7.736-12.638-2.605-5.458-3.157-8.006-3.66-16.902-.336-5.928-.125-13.306.487-16.997.594-3.587 2.171-8.88 3.505-11.763 1.333-2.882 4.535-8.03 7.115-11.44s6.922-7.836 9.648-9.837c2.726-2.001 7.093-4.723 9.704-6.048 2.61-1.325 7.203-3.125 10.204-4 3.554-1.037 9.159-1.572 16.064-1.535 8.427.046 12.051.547 17.646 2.44 3.872 1.31 9.226 3.885 11.897 5.723 2.672 1.838 6.601 4.917 8.732 6.842 2.13 1.925 5.27 5.53 6.978 8.012 1.708 2.482 4.197 6.777 5.532 9.543 1.334 2.767 3.049 7.422 3.81 10.344.761 2.922 1.384 8.869 1.384 13.215s-.623 10.293-1.384 13.215c-.761 2.922-2.476 7.577-3.81 10.344-1.335 2.766-3.854 7.104-5.599 9.64-1.744 2.535-5.767 6.93-8.939 9.767-3.172 2.836-8.985 6.69-12.917 8.561-3.932 1.872-10.457 4.094-14.5 4.938-4.043.843-8.701 1.48-10.351 1.415Zm4.31-7.476c6.097-.312 10.355-1.22 16-3.416 4.23-1.646 9.433-4.472 11.563-6.282 3.646-3.097 3.833-3.526 3.19-7.332-.375-2.223-1.54-5.45-2.587-7.173-1.066-1.753-4.106-4.247-6.907-5.666-3.157-1.6-6.667-2.535-9.515-2.535-4.255 0-4.63.228-6.544 3.98-1.116 2.188-3.353 4.663-4.97 5.5-1.617.836-3.75 1.518-4.74 1.516-.99-.002-3.274-.902-5.075-2-2.111-1.288-3.487-3.055-3.87-4.974-.328-1.637-1.22-3.494-1.98-4.126-.865-.718-2.927-.903-5.485-.494-2.255.36-5.29 1.277-6.745 2.037s-3.81 2.66-5.236 4.222c-1.424 1.561-3.146 4.253-3.826 5.982-.68 1.728-1.09 4.425-.91 5.993.259 2.257 1.682 3.737 6.827 7.104 3.575 2.339 8.75 4.898 11.5 5.688s6.35 1.652 8 1.918c1.65.265 6.74.291 11.31.058Zm38.27-22.113c.944-.985 2.606-3.591 3.692-5.791 1.086-2.2 2.706-6.544 3.601-9.654.895-3.11 1.627-8.89 1.627-12.846 0-3.956-.733-9.736-1.629-12.846-.896-3.11-2.873-8.129-4.395-11.154-1.52-3.025-4.653-7.64-6.96-10.254-2.306-2.615-6.74-6.233-9.854-8.04-3.114-1.808-8.084-4.281-11.045-5.496-4.438-1.822-7.325-2.21-16.434-2.21-8.741 0-12.317.448-17.116 2.143-3.337 1.179-8.317 3.585-11.067 5.348s-7.056 5.418-9.57 8.122c-2.513 2.704-5.736 6.935-7.162 9.402-1.426 2.467-3.584 7.856-4.795 11.977-1.72 5.85-2.096 9.138-1.717 15 .267 4.13 1.242 9.758 2.168 12.508.925 2.75 2.615 6.886 3.756 9.192 1.141 2.305 2.716 4.438 3.5 4.739.896.343 2.057-.62 3.123-2.59.933-1.725 2.937-4.595 4.453-6.378 1.516-1.782 4.216-3.93 6-4.77 1.784-.842 6.169-2.051 9.744-2.688 3.575-.636 6.917-1.562 7.427-2.058.562-.546-.547-2.333-2.819-4.539-2.06-2.001-4.61-5.499-5.666-7.773s-2.825-7.91-3.93-12.522C65.904 101.5 65 96.386 65 94.749c0-1.637.96-4.686 2.135-6.775 1.36-2.42 3.783-4.646 6.68-6.136 3.677-1.891 6.089-2.333 12.615-2.314 7.202.021 8.892.417 15.712 3.68 5.893 2.82 8.022 4.417 9.301 6.977.913 1.825 1.89 5.119 2.174 7.319.294 2.289-.15 6.139-1.04 9-.856 2.75-1.56 5.999-1.566 7.22-.006 1.22-.844 3.695-1.863 5.5-1.018 1.804-3.268 4.79-5 6.636-1.731 1.845-3.148 3.74-3.148 4.211 0 .47 1.912 1.346 4.25 1.944 2.338.599 6.224 1.735 8.637 2.525 2.413.79 5.874 2.57 7.691 3.956 1.817 1.385 4.537 4.785 6.044 7.555 2.616 4.806 2.819 4.954 4.458 3.244ZM89.862 142c1.058 0 2.197-.712 2.531-1.582.334-.87.607-2.895.607-4.5 0-2.435-.408-2.918-2.465-2.918-1.355 0-2.87.787-3.365 1.75-.495.963-.7 2.425-.456 3.25.245.825.62 2.063.834 2.75.214.688 1.255 1.25 2.314 1.25Zm-.572-15.059c.984.033 3.53-.828 5.655-1.913 2.126-1.085 4.752-3.098 5.835-4.475 1.082-1.376 2.739-4.127 3.681-6.113 1.01-2.127 1.46-4.615 1.099-6.059-.339-1.347-1.685-2.936-2.992-3.532-1.752-.798-3.7-.744-7.413.208-4.153 1.064-6.022 1.055-10.65-.056-5.514-1.323-5.66-1.3-8.174 1.214-2.317 2.317-2.454 2.88-1.444 5.922.613 1.85 1.998 4.808 3.076 6.574s3.665 4.327 5.749 5.691c2.083 1.364 4.593 2.507 5.578 2.54Zm1.461-26.56c.688-.207 2.405-.827 3.815-1.378 1.41-.552 3.9-1.003 5.534-1.003s4.08.727 5.435 1.615c2.382 1.56 2.464 1.535 2.43-.75-.02-1.3-.614-3.406-1.32-4.678-.706-1.273-3.903-3.635-7.105-5.25-4.816-2.43-7.05-2.936-12.93-2.933-5.303.002-7.93.503-10.333 1.969-1.773 1.08-3.5 3.068-3.839 4.417-.338 1.348-.455 3.275-.26 4.28.296 1.52 1.2 1.79 5.34 1.598 2.74-.127 6.557.38 8.482 1.128 1.925.747 4.063 1.19 4.751.984ZM13.538 89.221c-3.832 1.42-4.569 1.446-5.609.193-.755-.91-.977-3.048-.601-5.79.519-3.785.265-4.657-1.958-6.736-1.404-1.314-2.961-3.145-3.46-4.07-.619-1.147-.437-2.149.572-3.158.813-.813 3.196-1.769 5.295-2.123 3.043-.514 4.312-1.445 6.256-4.592C15.375 60.776 17.241 59 18.181 59c.94 0 3.015 1.885 4.61 4.188 2.286 3.3 3.836 4.414 7.297 5.25 2.68.648 4.514 1.695 4.702 2.686.17.893-1.049 2.98-2.707 4.64-2.799 2.798-2.971 3.385-2.403 8.18.374 3.163.196 5.58-.461 6.237-.763.763-2.542.544-6.17-.76-4.79-1.723-5.367-1.735-9.51-.199Zm143.592.11c-3.154 1.262-4.223 1.32-5.604.31-1.387-1.014-1.576-2.128-1.004-5.939.658-4.392.5-4.88-2.488-7.67-1.828-1.709-3.046-3.74-2.853-4.757.212-1.116 2.094-2.333 5.066-3.276 3.467-1.1 5.41-2.501 7.277-5.25 1.401-2.063 3.326-3.75 4.276-3.75.95 0 2.84 1.8 4.2 4 1.36 2.2 3.199 4 4.087 4 .888 0 3.032.494 4.764 1.098 2.261.788 3.149 1.726 3.149 3.325 0 1.226-1.125 3.285-2.5 4.577-2.122 1.994-2.5 3.246-2.5 8.284 0 5.935 0 5.935-3.25 5.397-1.787-.296-4.481-.847-5.986-1.224-1.675-.419-4.25-.08-6.634.874ZM18.236 80.726c1.765.125 3.512-.1 3.881-.5.37-.4.95-2.077 1.29-3.727.54-2.62.214-3.229-2.573-4.806-2.852-1.614-3.284-1.64-4.063-.25C16.292 72.3 15.2 73 14.341 73c-1.146 0-1.398.635-.954 2.407.333 1.324.837 3.011 1.122 3.75.285.739 1.962 1.445 3.727 1.57ZM161.458 80c2.736 0 3.515-.521 4.565-3.055 1.163-2.807 1.071-3.192-1.129-4.75-1.317-.932-2.619-1.695-2.894-1.695-.275 0-1.557.748-2.849 1.663-1.93 1.368-2.228 2.212-1.67 4.75.59 2.689 1.104 3.087 3.977 3.087ZM30.488 59.743c-1.107.22-2.283.128-2.614-.203-.332-.33-.385-3.649-.118-7.373.484-6.77.484-6.77-3.674-10.71-2.628-2.491-4.052-4.662-3.87-5.902C20.435 34.039 21.98 33.23 27 32c6.145-1.506 6.622-1.836 8.724-6.04 1.223-2.447 2.977-5 3.897-5.672 1.023-.748 2.265-.891 3.2-.368.84.47 2.288 2.801 3.218 5.181.931 2.38 2.315 4.673 3.077 5.097.761.424 3.859 1.34 6.884 2.036 4.342 1 5.564 1.712 5.802 3.382.203 1.422-1.05 3.392-3.817 6-4.118 3.884-4.118 3.884-3.45 10.627.573 5.795.429 6.834-1.025 7.392-.93.357-3.338-.163-5.35-1.155-2.013-.991-4.838-1.997-6.278-2.235-1.44-.238-4.14.362-6 1.333-1.86.972-4.288 1.946-5.394 2.165Zm97.88.023c-1.174.233-2.41-.024-2.746-.569-.337-.545-.323-3.765.031-7.155.645-6.163.645-6.163-3.6-10.488-2.646-2.696-4.109-5.026-3.885-6.187.254-1.322 1.662-2.106 4.845-2.698 2.468-.46 5.483-1.23 6.701-1.714s3.363-3.146 4.767-5.917c1.621-3.2 3.2-5.038 4.328-5.038 1.156 0 2.71 1.907 4.46 5.475 1.821 3.715 3.416 5.634 4.958 5.968 1.25.271 4.298.857 6.773 1.303 3.382.608 4.572 1.302 4.788 2.792.182 1.25-1.228 3.456-3.817 5.972-4.105 3.99-4.105 3.99-3.437 10.733.574 5.795.43 6.834-1.024 7.392-.93.357-3.338-.163-5.35-1.155-2.013-.991-4.838-1.997-6.278-2.235-1.44-.238-4.14.362-6 1.333-1.86.972-4.342 1.956-5.515 2.188Zm-53.438-4.04c-.863.227-2.173-.314-2.91-1.203-1.081-1.302-1.116-2.594-.181-6.646C72.478 45.111 73 41.18 73 39.14c0-3.17-.799-4.497-5.5-9.14-3.32-3.278-5.5-6.295-5.5-7.609 0-1.197.713-2.45 1.585-2.785.872-.335 4.134-.861 7.25-1.17 3.116-.31 6.59-.745 7.718-.969 1.394-.276 2.805-2.217 4.39-6.044 1.285-3.1 3.328-6.79 4.54-8.197 1.317-1.533 2.811-2.327 3.72-1.978.834.32 3.213 3.883 5.285 7.917s3.92 7.507 4.106 7.718c.187.21 4.025.973 8.53 1.695 4.504.721 8.55 1.896 8.993 2.61.45.73.271 2.032-.407 2.967-.666.916-3.397 4.176-6.07 7.243-4.458 5.114-4.81 5.89-4.242 9.34.341 2.069.896 6.117 1.234 8.996.524 4.476.35 5.336-1.206 5.933-1.167.448-3.628-.319-6.872-2.14-2.78-1.562-6.48-3.284-8.224-3.826-2.732-.851-4.044-.532-9.5 2.311-3.481 1.815-7.036 3.485-7.9 3.713Zm-27.11-8.604c.176-1.992 1.189-4.551 2.25-5.686C51.132 40.3 52 38.838 52 38.186c0-.653-1.237-1.182-2.75-1.177-1.886.006-3.608-1.015-5.48-3.25-2.729-3.259-2.729-3.259-5.322-.009-1.864 2.336-3.416 3.25-5.52 3.25-1.765 0-2.928.527-2.928 1.326 0 .729 1.125 2.382 2.5 3.674 1.557 1.463 2.5 3.447 2.5 5.262 0 2.817.126 2.893 3.777 2.276 2.077-.351 4.89-.224 6.25.284 2.319.864 2.493.696 2.793-2.7Zm86.43 3.23c1.237-.43 3.375-.744 4.75-.697 1.375.047 3.513.421 4.75.832 2.045.678 2.25.43 2.25-2.736 0-1.967.87-4.587 2-6.024 1.1-1.398 2-3.034 2-3.635 0-.6-1.039-1.092-2.309-1.092-1.27 0-3.02-.563-3.889-1.25-.869-.688-2.096-2.262-2.726-3.5-.63-1.238-1.536-2.25-2.012-2.25-.477 0-1.796 1.575-2.931 3.5-1.476 2.5-2.772 3.5-4.54 3.5-1.361 0-2.774.483-3.139 1.074-.365.59.284 2.082 1.441 3.314 1.368 1.456 2.105 3.555 2.105 5.994 0 3.457.177 3.691 2.25 2.97ZM80.6 45.826c1.045-.194 3.7-1.16 5.9-2.149 3.78-1.698 4.192-1.703 7.5-.104 1.925.931 4.287 1.91 5.25 2.177 1.535.424 1.75-.305 1.75-5.937 0-6.025.216-6.63 3.5-9.813 1.925-1.866 3.5-3.937 3.5-4.602 0-.691-2.111-1.5-4.923-1.887-2.707-.373-5.588-1.202-6.403-1.844-.814-.642-2.433-3.08-3.597-5.417C91.912 13.912 90.527 12 90 12c-.528 0-1.854 1.753-2.947 3.896-1.093 2.142-2.665 4.573-3.494 5.402-.829.83-3.8 1.822-6.6 2.208-4.15.57-4.984 1.006-4.503 2.347.325.906 1.64 2.58 2.92 3.722 1.28 1.141 2.803 2.923 3.383 3.958.593 1.06.81 4.236.498 7.264-.505 4.894-.383 5.35 1.344 5.03Z" />
</svg>