<svg xmlns="http://www.w3.org/2000/svg" width="192" height="168">
    <path fill="#a48f2c" fill-rule="evenodd"
        d="M151.093 167.864c-14.076-.075-26.634-.335-27.907-.578-1.272-.243-4.259-2.32-6.637-4.614-3.605-3.479-4.436-5.01-5.002-9.217-.466-3.467-.205-6.438.836-9.5.877-2.579 3.022-5.773 5.095-7.586 1.968-1.722 4.986-3.412 6.705-3.756 1.72-.344 3.692-1.094 4.384-1.668.966-.803 1.13-5.597.71-20.744-.45-16.234-.898-20.669-2.543-25.201-1.336-3.681-3.543-6.988-6.673-10-2.572-2.475-6.45-5.337-8.619-6.36-2.168-1.024-4.723-2.262-5.678-2.75-.956-.49-5.353-.89-9.772-.89-6.736 0-9.043.464-14.264 2.871-3.425 1.58-7.877 4.617-9.893 6.75-2.015 2.134-4.71 5.904-5.987 8.379-1.904 3.688-2.39 6.438-2.696 15.24-.339 9.771-.205 10.792 1.488 11.34 1.023.33 2.985 1.102 4.36 1.713 1.375.611 3.778 2.258 5.34 3.66 1.56 1.4 3.473 3.762 4.25 5.247.775 1.486 1.41 5.357 1.41 8.602 0 4.475-.544 6.702-2.25 9.208-1.238 1.818-3.52 4.248-5.071 5.398-2.685 1.99-4.21 2.106-31.54 2.384-28.523.29-28.74.277-32.086-2-1.853-1.26-4.29-3.534-5.414-5.053-1.41-1.902-2.174-4.772-2.458-9.232-.372-5.847-.12-6.933 2.6-11.24 2.958-4.68 3.022-5.066 3.56-21.267.326-9.825 1.134-18.523 2-21.5.799-2.75 2.429-7.456 3.623-10.458 1.194-3.002 3.704-8.177 5.578-11.5 1.873-3.323 6.23-9.285 9.682-13.248 3.452-3.963 9.42-9.705 13.263-12.76 3.843-3.056 10.615-7.328 15.049-9.494 4.433-2.166 12.314-4.974 17.512-6.24C81.23 10.054 86.382 9.5 95.5 9.5c6.6 0 15.15.63 19 1.401 3.85.771 10.05 2.64 13.776 4.152 3.726 1.512 9.967 4.645 13.867 6.963 3.9 2.317 10.471 7.423 14.602 11.346 4.13 3.924 9.567 10.284 12.084 14.136 2.516 3.851 5.801 9.477 7.3 12.502 1.5 3.025 3.885 9.885 5.3 15.245 2.435 9.232 2.571 11.073 2.571 34.922 0 19.97.285 25.502 1.38 26.754.758.869 2.108 3.02 3 4.78.897 1.772 1.613 5.564 1.604 8.5-.012 3.622-.724 6.541-2.25 9.224-1.393 2.447-3.894 4.8-6.641 6.25-4.303 2.27-5.014 2.322-30 2.189Zm2.407-5.282c16.633-.207 20.621-.543 23.691-2.001 2.03-.964 4.393-2.824 5.25-4.132.858-1.308 1.559-4.2 1.559-6.428 0-2.493-.864-5.396-2.25-7.555-1.238-1.929-3.375-3.816-4.75-4.195-1.375-.379-4.29-.707-6.476-.73-3.302-.034-4.195-.495-5.27-2.719-.712-1.473-2.655-3.823-4.32-5.224-1.663-1.4-4.739-3.007-6.833-3.57-2.7-.728-4.796-.695-7.204.111-1.869.626-4.414 2.058-5.656 3.182-1.243 1.125-3.105 3.478-4.138 5.229-1.695 2.872-2.444 3.23-7.659 3.663-4.921.408-6.2.95-8.612 3.649-2.224 2.49-2.832 4.14-2.832 7.689 0 2.486.701 5.59 1.559 6.898.857 1.308 2.994 3.056 4.75 3.883 1.755.827 4.541 1.728 6.191 2.001 1.65.274 12 .386 23 .249Zm-112.2-21.66c18.324.062 23.363-.214 25.67-1.407 1.58-.817 3.808-2.799 4.951-4.404 1.289-1.81 2.079-4.471 2.079-7 0-3.066-.703-4.867-2.832-7.25-2.403-2.688-3.697-3.24-8.54-3.642-5.42-.45-5.858-.694-8.726-4.861-1.66-2.414-4.005-5.024-5.21-5.8-1.206-.775-3.865-1.716-5.91-2.09-2.803-.511-4.833-.138-8.263 1.523-3.16 1.53-5.334 3.544-7.128 6.605-2.369 4.042-2.91 4.404-6.585 4.404-2.202 0-5.472.697-7.266 1.548-1.795.852-3.775 2.673-4.401 4.047C8.512 123.97 8 126.67 8 128.597c0 1.926.637 4.733 1.415 6.238.778 1.505 2.465 3.25 3.75 3.877 1.284.628 3.01 1.364 3.835 1.636.825.272 11.76.53 24.3.573Zm135.571-8.146c1.454-.29 1.602-2.633 1.381-21.8-.163-14.07-.784-24.407-1.801-29.976-.854-4.675-2.98-11.65-4.723-15.5-1.744-3.85-4.604-9.25-6.357-12-1.753-2.75-5.484-7.554-8.292-10.675-2.808-3.122-7.912-7.802-11.342-10.401-3.43-2.6-9.957-6.458-14.505-8.575-4.547-2.117-11.626-4.749-15.731-5.849-5.708-1.53-10.587-1.997-20.733-1.987-11.418.01-14.383.367-21.268 2.552-4.4 1.397-11.6 4.285-16 6.418s-10.675 6.156-13.945 8.938c-3.27 2.783-7.8 7.201-10.066 9.82-2.266 2.617-5.519 7.234-7.228 10.259-1.709 3.025-4.208 7.75-5.553 10.5-1.346 2.75-3.406 8.724-4.578 13.276C14.533 83.983 14 89.063 14 98.096c0 11.917.024 12.04 2.25 11.724 2.099-.299 2.264-.858 2.457-8.32.114-4.4.687-11.407 1.274-15.571s2.166-10.6 3.508-14.3c1.343-3.702 3.694-9.037 5.226-11.857 1.532-2.82 6.16-8.725 10.285-13.122s9.984-9.604 13.02-11.572c3.035-1.968 8.516-5.053 12.18-6.856 3.663-1.803 10.63-4.156 15.48-5.229 4.851-1.072 11.943-1.96 15.76-1.971 3.817-.012 9.667.478 13 1.089 3.333.61 8.76 2.003 12.06 3.094 3.3 1.091 9.04 3.763 12.756 5.938 3.716 2.174 9.391 6.146 12.611 8.826 3.22 2.68 8.174 7.946 11.009 11.702 2.834 3.756 6.343 9.304 7.797 12.329 1.454 3.025 3.539 8.2 4.634 11.5 1.703 5.135 2.054 9.5 2.433 30.27.365 20.035.71 24.536 1.972 25.8.842.841 2.264 1.384 3.16 1.206Zm-81.168-6.84c-.662-.034-2.153-.447-3.315-.916-1.161-.47-3.074-2.077-4.25-3.572-1.176-1.495-2.138-3.58-2.138-4.633s.683-3.234 1.517-4.848c.834-1.613 2.905-3.651 4.603-4.529 2.551-1.32 3.593-1.386 6.017-.381 1.612.667 3.816 2.339 4.897 3.713 1.081 1.375 1.966 3.586 1.966 4.915 0 1.328-.641 3.654-1.425 5.17s-2.605 3.293-4.047 3.95c-1.442.657-3.163 1.166-3.825 1.132ZM137.338 124c.553 0 1.827-.745 2.833-1.655 1.58-1.43 1.828-3.298 1.823-13.75-.003-6.652-.444-14.795-.98-18.095-.537-3.3-2.56-9.215-4.497-13.145-2.449-4.967-5.336-8.824-9.476-12.656-3.274-3.032-8.486-6.71-11.581-8.175-3.096-1.464-8.403-3.123-11.794-3.685-3.391-.563-8.896-.781-12.232-.486-3.336.296-8.6 1.485-11.696 2.644-3.097 1.159-8.242 4.123-11.434 6.588-3.192 2.465-7.088 6.154-8.658 8.198-1.57 2.045-3.751 5.742-4.847 8.217-1.096 2.475-2.624 6.884-3.396 9.799C50.631 90.713 50 94.635 50 96.514c0 2.46.595 3.734 2.127 4.554 1.61.862 2.306.849 2.865-.055.406-.656 1.037-4.411 1.402-8.345.542-5.83 1.385-8.363 4.567-13.719 2.146-3.612 5.991-8.494 8.545-10.848 2.553-2.353 6.724-5.2 9.269-6.325 2.544-1.126 7.3-2.67 10.57-3.433 4.757-1.11 7.161-1.156 12.049-.227 3.358.638 8.49 2.265 11.403 3.617 2.914 1.351 7.6 4.759 10.412 7.572 3.253 3.252 6.33 7.743 8.453 12.339C135 88.869 135 88.869 135 105.768c0 9.294.3 17.199.667 17.565.366.367 1.118.667 1.67.667Zm27.6-.231c1.297-.254 1.562-2.084 1.562-10.787 0-5.765-.502-15.432-1.116-21.482-.85-8.378-1.89-12.857-4.36-18.79-1.784-4.285-5.419-11.121-8.076-15.192-3.39-5.193-7.162-9.259-12.64-13.626-4.294-3.423-10.958-7.674-14.808-9.446-3.85-1.772-10.905-4.172-15.677-5.334-4.773-1.161-10.848-2.112-13.5-2.111-2.653 0-8.155.696-12.228 1.545-4.072.85-9.779 2.38-12.68 3.4-2.903 1.02-7.67 3.137-10.596 4.704-2.926 1.568-9.18 6.675-13.9 11.35-7.187 7.119-9.337 10.044-13.232 18-2.557 5.225-5.552 13.1-6.653 17.5-1.102 4.4-2.01 10.336-2.019 13.191-.008 2.855.388 5.44.88 5.745.494.304 1.842-.232 2.998-1.191 1.591-1.322 2.36-3.685 3.166-9.745.587-4.4 1.688-10.135 2.448-12.744s2.521-7.013 3.914-9.786c1.393-2.774 3.89-7.014 5.547-9.423 1.657-2.409 5.924-6.796 9.482-9.749 3.557-2.953 9.974-7.233 14.26-9.51 5.1-2.712 10.703-4.73 16.226-5.843 6.122-1.235 10.616-1.52 16.384-1.039 4.372.365 10.655 1.575 13.963 2.69 3.308 1.114 8.71 3.386 12.004 5.049 3.926 1.982 8.954 6.007 14.6 11.689 5.908 5.944 9.666 10.749 11.965 15.298 1.843 3.648 4.205 9.713 5.25 13.479C159.6 87.016 160 91.812 160 104.4c0 13.559.252 16.221 1.688 17.808.93 1.026 2.392 1.729 3.25 1.56ZM96.198 119c1.026 0 2.137-.71 2.47-1.578.333-.867-.051-2.234-.854-3.036-.81-.81-2.205-1.173-3.137-.816-.922.354-1.677 1.42-1.677 2.37 0 .95.3 2.027.667 2.393.366.367 1.505.667 2.531.667Zm54.714 0c1.03 0 2.147-.712 2.481-1.582.334-.87.607-7.027.607-13.682 0-9.198-.514-14.035-2.145-20.168-1.18-4.437-3.305-10.093-4.723-12.568-1.418-2.475-3.847-6.394-5.398-8.71-1.551-2.314-4.939-6.042-7.527-8.282-2.589-2.24-7.863-5.65-11.72-7.576-3.858-1.926-9.708-4.146-13-4.932-3.293-.786-9.447-1.445-13.675-1.464-4.228-.02-10.753.674-14.5 1.542-3.747.867-9.512 2.99-12.812 4.72-3.345 1.751-9.127 6.252-13.068 10.172-3.888 3.866-8.499 9.694-10.246 12.95-1.748 3.256-3.864 8.431-4.703 11.5-.838 3.07-1.628 7.83-1.754 10.58-.217 4.728-.093 5 2.271 5 2.288 0 2.553-.466 3.12-5.5.342-3.025 1.509-7.975 2.593-11 1.084-3.025 3.955-8.389 6.38-11.92 2.423-3.531 6.626-8.176 9.338-10.322 2.712-2.146 6.54-4.723 8.507-5.726 1.966-1.004 6.46-2.771 9.984-3.928C85.486 46.605 89.882 46 96.197 46c6.277 0 10.634.595 14.919 2.04 3.329 1.12 8.471 3.403 11.428 5.072 2.956 1.668 7.883 5.742 10.947 9.052 3.065 3.31 6.945 8.737 8.622 12.06 1.678 3.323 3.651 9.02 4.386 12.659.735 3.64 1.351 11.335 1.37 17.102.017 5.766.288 11.504.6 12.75.338 1.345 1.33 2.265 2.443 2.265ZM16.673 30.96c-1.195-.022-3.405-.708-4.91-1.525-1.506-.817-3.457-2.877-4.336-4.577-.88-1.7-1.362-4-1.072-5.109.29-1.11 1.764-3.307 3.274-4.883C11.652 12.753 13.318 12 15.965 12c1.974 0 4.528.657 5.675 1.46 1.146.803 2.647 2.82 3.335 4.48.689 1.662.977 4.113.642 5.448-.335 1.335-1.995 3.594-3.69 5.02-1.694 1.425-4.058 2.574-5.254 2.552Zm.847-6.606c.729-.28 1.602-1.229 1.94-2.109.337-.88-.025-2.238-.805-3.019-.78-.78-2.254-1.257-3.275-1.06-1.021.196-2.024 1.222-2.227 2.28-.204 1.057.397 2.483 1.335 3.17.939.685 2.303 1.018 3.032.738Zm152.98-2.851c-1.748.29-4.182-.16-5.832-1.078-1.558-.866-3.491-3.152-4.297-5.079-1.33-3.184-1.297-3.789.368-6.64 1.008-1.724 3.214-3.943 4.904-4.93 2.775-1.62 3.406-1.654 6.544-.342 1.91.798 4.02 2.111 4.691 2.919.67.808 1.47 3.022 1.779 4.92.461 2.843.056 4.006-2.298 6.592-1.573 1.727-4.209 3.364-5.859 3.638Zm.648-7.137c1.384-1.253 1.554-2.054.752-3.553-.643-1.202-1.858-1.817-3.207-1.624-1.2.172-2.338 1.176-2.542 2.245-.202 1.064.437 2.522 1.42 3.242 1.5 1.096 2.079 1.046 3.577-.31Z" />
</svg>